/* XPM */
static char *e2bee4bcaaf64611b994bfc2164adef1ryYEcJXXhO0hhJeh[] = {
/* columns rows colors chars-per-pixel */
"48 48 241 2 ",
"   c None",
".  c #0C0B0E",
"X  c #14120D",
"o  c #1D1207",
"O  c #100D14",
"+  c #131315",
"@  c #151419",
"#  c #19171A",
"$  c #1C1B1D",
"%  c #1C1816",
"&  c #100C0E",
"*  c #230D04",
"=  c #360805",
"-  c #2B1809",
";  c #351A09",
":  c #231A14",
">  c #2E1B12",
",  c #231E1D",
"<  c #2F1713",
"1  c #361A17",
"2  c #3D0E1E",
"3  c #392C03",
"4  c #342607",
"5  c #282418",
"6  c #3B231C",
"7  c #332718",
"8  c #3F301B",
"9  c #1E1C21",
"0  c #131227",
"q  c #211E23",
"w  c #2C1828",
"e  c #371B29",
"r  c #340C24",
"t  c #1D2729",
"y  c #17322E",
"u  c #1C2838",
"i  c #232224",
"p  c #2A2424",
"a  c #2B2A25",
"s  c #262529",
"d  c #29262B",
"f  c #2B2A2C",
"g  c #262927",
"h  c #332924",
"j  c #322C2C",
"k  c #392925",
"l  c #39332D",
"z  c #39362B",
"x  c #2C2B32",
"c  c #2C2738",
"v  c #312D33",
"b  c #33293A",
"n  c #333334",
"m  c #3E3A35",
"M  c #3C3A3B",
"N  c #373638",
"B  c #293433",
"V  c #5C1A00",
"C  c #47191A",
"Z  c #510E12",
"A  c #6A1B00",
"S  c #6D0D17",
"D  c #412605",
"F  c #452519",
"G  c #42351B",
"H  c #55300C",
"J  c #7C3603",
"K  c #722E0D",
"L  c #560D28",
"P  c #4F1727",
"I  c #631527",
"U  c #492323",
"Y  c #42342D",
"T  c #453B32",
"R  c #593935",
"E  c #56222B",
"W  c #6B272B",
"Q  c #742732",
"!  c #6A2C2D",
"~  c #3F4136",
"^  c #754A12",
"/  c #6A4B17",
"(  c #4D412A",
")  c #47413D",
"_  c #5A433B",
"`  c #56492C",
"'  c #765527",
"]  c #725232",
"[  c #766434",
"{  c #7B662D",
"}  c #50430C",
"|  c #3D3C41",
" . c #433F40",
".. c #763949",
"X. c #414144",
"o. c #454549",
"O. c #4B4A4C",
"+. c #494545",
"@. c #534B4A",
"#. c #584B46",
"$. c #59524B",
"%. c #4D4E54",
"&. c #594F51",
"*. c #485651",
"=. c #575558",
"-. c #4F514E",
";. c #67564B",
":. c #655951",
">. c #74544F",
",. c #5D6355",
"<. c #6B685A",
"1. c #746358",
"2. c #6C6A50",
"3. c #5C5B62",
"4. c #5A6775",
"5. c #5A7375",
"6. c #696766",
"7. c #7A6C67",
"8. c #78746B",
"9. c #606775",
"0. c #747472",
"q. c #7C7977",
"w. c #89380B",
"e. c #B61936",
"r. c #882939",
"t. c #952D3A",
"y. c #A62C3C",
"u. c #911D32",
"i. c #C21A3D",
"p. c #975817",
"a. c #8D4E16",
"s. c #87502D",
"d. c #AF5E29",
"f. c #8F6D2B",
"g. c #9A2F4A",
"h. c #853642",
"j. c #983A47",
"k. c #983A51",
"l. c #BA2A43",
"z. c #A33645",
"x. c #B63348",
"c. c #A72C4F",
"v. c #C32742",
"b. c #D32343",
"n. c #84555A",
"m. c #A9424F",
"M. c #937F55",
"N. c #8C784E",
"B. c #B27D5D",
"V. c #846E66",
"C. c #85756A",
"Z. c #877A74",
"A. c #976B6D",
"S. c #B35B67",
"D. c #B3835D",
"F. c #8B8479",
"G. c #948570",
"H. c #BD8B64",
"J. c #B69D6B",
"K. c #AB9772",
"L. c #BBA57E",
"P. c #978350",
"I. c #CE9253",
"U. c #EB9F61",
"Y. c #DAAA66",
"T. c #CCB275",
"R. c #D6B279",
"E. c #CBA461",
"W. c #E3AD77",
"Q. c #E9B375",
"!. c #8B7B83",
"~. c #DB7F8C",
"^. c #7F8281",
"/. c #8A8887",
"(. c #979589",
"). c #999896",
"_. c #968B89",
"`. c #A18386",
"'. c #A49B93",
"]. c #A99994",
"[. c #B69994",
"{. c #B0908D",
"}. c #91A29C",
"|. c #AAA598",
" X c #B1A792",
".X c #ABABAC",
"XX c #A9A9A5",
"oX c #B7ABA4",
"OX c #BBB4AB",
"+X c #B3B2B3",
"@X c #BFB7B4",
"#X c #AFB0B0",
"$X c #CA9796",
"%X c #D59198",
"&X c #F08D9F",
"*X c #D6BA84",
"=X c #C6A19C",
"-X c #D5A7A7",
";X c #C7B7A7",
":X c #D6B2AF",
">X c #ECB4B7",
",X c #E7A8AC",
"<X c #CE96A3",
"1X c #E2C090",
"2X c #CAC3BC",
"3X c #CAC3BB",
"4X c #DACCBD",
"5X c #D3D1BE",
"6X c #C1C3AE",
"7X c #E7CFB6",
"8X c #E5D0BF",
"9X c #DAC693",
"0X c #BEBCC7",
"qX c #CAC8C6",
"wX c #DCCDC2",
"eX c #D8C9C1",
"rX c #DAD1C3",
"tX c #DCD3CC",
"yX c #DAD6C6",
"uX c #DEDAD6",
"iX c #E5CBC5",
"pX c #F9C5CB",
"aX c #E4DCCC",
"sX c #EDDAC3",
"dX c #E5DBD4",
"fX c #E9DCD5",
"gX c #FDDFDB",
"hX c #F7DAD4",
"jX c #DFE3D5",
"kX c #E5E2D6",
"lX c #EBE4DA",
"zX c #E9E3D7",
"xX c #F3E5DB",
"cX c #F5E2D7",
"vX c #E6E2C4",
"bX c #F2DCE5",
"nX c #ECE8E5",
"mX c #F6E8E2",
"MX c #FCFAFD",
"NX c #F7F7F6",
"BX c #F7F7EB",
/* pixels */
"                                                                                                ",
"                                                                                                ",
"                                                                                                ",
"                                                                                                ",
"                                                                                                ",
"                                                                                                ",
"                                            +X+X.X+X+X.XXX.X.X.X.X.XqX                          ",
"                              n q i s d f f f f f f f s s s f f f f 6.                          ",
"                    o.o.X.O.9 $ # # $ $ $ 9 $ $ 9 $ s 9 # q 9 i 9 # d O..X                      ",
"                  . # + . . + @ . $ @ @ # $ + + @ # O . # O @ @ 9 + + @ ^.NX                    ",
"                  i s i # i . i 9 i q x d q s i i 9 v d v s d q 9 d s i /.NXMX                  ",
"                  s f X.N s + x 9 x d 9 d x x v x v s s d q v v x %.o.9 # s /.MX                ",
"                /.f v o.n x 9 i # i n o.| o.d i o.N f f d j p M | =.X.d s $ O./.).              ",
"              N f s x %.X.o.s s 9 f N 3.=.=.N v =. .j n f p n @.=.3.O.i 9 i + i M               ",
"          6.s s f i s # @ i # s @ f t i v i s p p N , Z.nX6.h i x s s s i s + f )               ",
"              N s x q s 9 i s uX/.f i f a p 2XnXh @.nXnXlXnXfXm d x s x # i $ i f               ",
"              n s s f q $ p a uX/.f a p <.'.iXxX6 #.mXOX8.8.q.'.).s q s i $ % g $ ^.XX          ",
"              N f x 9 s p j j fX(.l T z '.mXfXcXT 1.dX).~ m m tXuXp v s i a + i $ N 0.          ",
"          0.s d f s s , +.2X8.fX'.nXdXlXdXzXcXxXxXlXnXjXkXkXBXkXlXo p q i 5 X a |               ",
"          0.t x f s q f @.@X:.: : h :.mXlXkXxXaXxXlXuX(.5 7 5 kXfXxXoXp i $ $ i | MX            ",
"                  f f % a @.Y '.8.'.Z.1.|.aXzXcXfXeX<.F.].].[.1.1.wX].: 5 s 6.+X0XMX            ",
"                  f n j : l h eX/.rX].T _.yX4XwXwXoX) C.eXiXiX_ ` 4X]., f n 6.qXnXMX            ",
"              M n   ).& ) XX$.3XF.eX;X3X5X6XrXrXwXrX3XrXiX:X:X:X;X X_.p @.+X-.v %.MX            ",
"              $ # -.+.X : #.h ;.Y > > > 5 5 - > > 6 : : 1 R >.>.;.:.$.@.) $.5 X N MX            ",
"              O.f q.=.X a 6.l Z._ - - * - ; = = = ; * : o ;.C.V.V.V.V.7.;.1.G o T MX            ",
"                  a , i m OX7.rXZ.1 _ [.=X$X$X%X$X-X[.C.7 |.rXaXsX8X[.; F ; * 4 ( NX            ",
"                        q.) z tX'.;XF.R A.$X,X%X%X{.R V.;XaXkXyX7XH R ! ] D.' J.[ ` F.          ",
"                          0.$.|.8.lXoX1.[.-X>X>X>X-Xn.[.xXOX|. XL.' ] K s.I.a.R.' 4 2.          ",
"                            2Xn j lXeXxXhXgXhXhXgXgXgXgXxX:.8 4 D 1XB.V A w.J Q.' - 2.          ",
"                              nX)., k < C U 6 U k U C C F 6 7 ;X9XR.H.V K w.J Q./ 3 <.          ",
"                            #X+.m tX`.E Q h.>XpXC E h.Q C {.iX` } *XH.V A w.J W.' 4 ,.          ",
"                            ^.0.&.`.A.I r.j.%X,XW Q z.r.Z =XcX8 3 M.s.K w.d.a.W.] 7 <.          ",
"                          n s lX{.2 Q k.j.j.j.t.y.x.y.u.S $XcXY 7 F V J d.U.p.*X] 5 6.          ",
"                          s f   !.E I k.&XpXj.S l.e.v.x.j.! C dXdX; H a.p.I.^ D (               ",
"                              l 1 1 Q j.m.m.z.y.v.b.b.v.z.W F iXsX; ^ Y.I.Y./ 3 z               ",
"                              /.C.6 E h.S.~.r.u.l.e.i.l.t.Z F G.M.[ M.E.f.f.[ G.(.              ",
"                                  h U n.<XbX..L g.c.c.g.k.! 1 ; H *XT.T.{ 3 2.                  ",
"                                  % k e w e e r P L L Z C 1 < ].K.J.P.- N.vX                    ",
"                                  @ @ x c c 0 0 c b w b d + % > 4 4 G V.5X                      ",
"                                  t c 9.9.9.u u 4.9.4.5.5.B d k Y 7 7.                          ",
"                                  d x s v d c s x t y y y t f                                   ",
"                                    !.d 6.).M s .X).B *.}.*.d                                   ",
"                                      j /.qX+.a MXtX5 0.qX=.f                                   ",
"                                      , f a i a     p k p p s                                   ",
"                                                                                                ",
"                                                                                                ",
"                                                                                                ",
"                                                                                                "
};
