/* XPM */
static char *ff4ff17e58a841c980d081df5adb7691CGQN7oY1q5HXhS4D[] = {
/* columns rows colors chars-per-pixel */
"48 48 230 2 ",
"   c None",
".  c #642F1D",
"X  c #6B3727",
"o  c #6C3E31",
"O  c #733E32",
"+  c #793F34",
"@  c #6B4435",
"#  c #704034",
"$  c #794338",
"%  c #9A442F",
"&  c #8D4A3A",
"*  c #9B4434",
"=  c #9F4837",
"-  c #9D4B3B",
";  c #994637",
":  c #8F503F",
">  c #A34436",
",  c #A44738",
"<  c #A34A3B",
"1  c #AA4C3D",
"2  c #AD513C",
"3  c #964E40",
"4  c #9A4C41",
"5  c #885449",
"6  c #9C5344",
"7  c #955546",
"8  c #945D56",
"9  c #AA4F41",
"0  c #AB5342",
"q  c #AA5C4A",
"w  c #B25545",
"e  c #B55C47",
"r  c #B45649",
"t  c #B45A4C",
"y  c #BC5B4B",
"u  c #BC5947",
"i  c #B95F51",
"p  c #8C675C",
"a  c #896050",
"s  c #956459",
"d  c #956A5D",
"f  c #9C6759",
"g  c #BC614E",
"h  c #B66049",
"j  c #BC6353",
"k  c #BC6B5C",
"l  c #B7675A",
"z  c #BA725E",
"x  c #B4705D",
"c  c #A26A5B",
"v  c #9A6A61",
"b  c #967061",
"n  c #987669",
"m  c #9B7A73",
"M  c #A06A63",
"N  c #B96F64",
"B  c #A7786A",
"V  c #BB7464",
"C  c #BB7B6C",
"Z  c #B87867",
"A  c #AB7F75",
"S  c #C25D4E",
"D  c #CC5D4E",
"F  c #DE5D51",
"G  c #DC5F59",
"H  c #CD5E4F",
"J  c #E05E50",
"K  c #C26353",
"L  c #CD665B",
"P  c #C46B5B",
"I  c #CA6D5C",
"U  c #D66555",
"Y  c #DC6455",
"T  c #DB6956",
"R  c #DC655A",
"E  c #D56B5C",
"W  c #DB6B5B",
"Q  c #D46758",
"!  c #DB715E",
"~  c #D2715E",
"^  c #D46B56",
"/  c #E3644E",
"(  c #E26454",
")  c #E46A57",
"_  c #E3655B",
"`  c #EA665A",
"'  c #E36B5B",
"]  c #EC6A5A",
"[  c #E96457",
"{  c #E1725F",
"}  c #C16D62",
"|  c #D66C62",
" . c #DD6D62",
".. c #DF6765",
"X. c #C27162",
"o. c #CB7361",
"O. c #C37A6C",
"+. c #C87868",
"@. c #D37263",
"#. c #D97364",
"$. c #D37B6A",
"%. c #DC7B6C",
"&. c #D87768",
"*. c #CD7B72",
"=. c #D37E72",
"-. c #DD7D72",
";. c #D47E7D",
":. c #E46361",
">. c #E36B62",
",. c #EA6D62",
"<. c #E66B65",
"1. c #E37464",
"2. c #EB7363",
"3. c #E47866",
"4. c #E4766B",
"5. c #EB756A",
"6. c #E57C6D",
"7. c #EA7A6D",
"8. c #F27D6C",
"9. c #F47668",
"0. c #E47D72",
"q. c #EB7C72",
"w. c #E27B7B",
"e. c #F37D74",
"r. c #9D8470",
"t. c #A0816D",
"y. c #A68474",
"u. c #AC8174",
"i. c #A8867B",
"p. c #B58379",
"a. c #CF816D",
"s. c #DC816D",
"d. c #D0826E",
"f. c #CC8A75",
"g. c #D38273",
"h. c #DB8373",
"j. c #D58975",
"k. c #DB8973",
"l. c #D2847B",
"z. c #D48B79",
"x. c #DB8A79",
"c. c #D9847D",
"v. c #E3826D",
"b. c #E9806D",
"n. c #F0816D",
"m. c #E38372",
"M. c #EC8274",
"N. c #E78879",
"B. c #F68477",
"V. c #E6917C",
"C. c #B48C82",
"Z. c #AA908F",
"A. c #B99B8C",
"S. c #AE938D",
"D. c #B7A295",
"F. c #C79888",
"G. c #DA9888",
"H. c #CD9F92",
"J. c #E98A86",
"K. c #EC9F8C",
"L. c #E79587",
"P. c #F69B8B",
"I. c #EF9F94",
"U. c #C9A396",
"Y. c #D5A494",
"T. c #D7AB99",
"R. c #DAA08A",
"E. c #E2A28B",
"W. c #ECA18C",
"Q. c #F7A38E",
"!. c #E9AB98",
"~. c #F1A391",
"^. c #FDAC9C",
"/. c #F8A998",
"(. c #F7B198",
"). c #CAABA2",
"_. c #D9B7A5",
"`. c #C3AFB1",
"'. c #DBBCB6",
"]. c #DBBDB9",
"[. c #D6BBB3",
"{. c #D2B0A7",
"}. c #F6ACA2",
"|. c #ECB7A6",
" X c #FFB3A4",
".X c #FFB6AC",
"XX c #FFBCAC",
"oX c #F7BEA7",
"OX c #FDBBB3",
"+X c #F6BCB0",
"@X c #DBC1BA",
"#X c #D5C1AF",
"$X c #FEC3AD",
"%X c #FFCBAF",
"&X c #F8C0AA",
"*X c #E8CBB8",
"=X c #FEC4B3",
"-X c #F4CDB6",
";X c #FECAB3",
":X c #FFC6BA",
">X c #F3CBBB",
",X c #FECBBB",
"<X c #F7C5B8",
"1X c #F5D3BB",
"2X c #FED2B9",
"3X c #DBD8C8",
"4X c #E4CAC5",
"5X c #FFCCC1",
"6X c #E9D6C8",
"7X c #FFD3C3",
"8X c #FFDBC3",
"9X c #FED4C9",
"0X c #FFDCCB",
"qX c #F4D4CA",
"wX c #FEDDD2",
"eX c #E1D8D1",
"rX c #FFEAD1",
"tX c #FEE4DB",
"yX c #FFECDC",
"uX c #F8E6D5",
"iX c #FFF2D4",
"pX c #F3E2D1",
"aX c #FEECE3",
"sX c #FFE7E3",
"dX c #FEF2E5",
"fX c #FFF8E7",
"gX c #FEF4EC",
"hX c #FEF9EA",
"jX c #FFFDF2",
"kX c #FFF6F0",
/* pixels */
"                                                                                                ",
"                                                                                                ",
"                                                                                                ",
"                                                                                eXeXhX          ",
"                                                                                fXdX3XhX        ",
"                                                                              gXdXfXeXyXgX      ",
"                                                                              jXjX6XuXD.4X      ",
"                                                                              gXfXfXyXdX`.`.    ",
"                                            dXfXfXaXdXaXaXgXaXaXdXaXkX      gXjXfXyXaXtXqXZ.    ",
"                                  v M v 8 s d d b n b s d s M M v v p m tXgXfXdXyXfXqX9X4XZ.    ",
"                          m b d B C N O.=.} +.X.k O.V V O.+.} +.l O.Z C tXtXdXdXpX*X9X>XwXZ.    ",
"                        i.u.A p.C O.V X.I @.L | @.@.o.o.P o.u u K t i N ,X7X6X*X6Xn y.i.        ",
"                  D._._.1X7X0X<X!.!.C V O.$.@.E Q S u g e h g w w 1 y , l c i.#X                ",
"                A.1X8X;X;X7XyX7X:XwXrX0X;XZ P I | H u y e % j 1 2 u > 1 - X *X                  ",
"              T.,X;XXX$Xj.x.*.c.;.OX0XrXiX1X8Xz I S y K j 0 i w 0 % < 1 4 $ @X                  ",
"            B 2X;X(.k.s.s.m.N.w.w.J.=X-XiXiX*X,X*.t y S r K > r * 0 % = 6 O [.                  ",
"            F.oXK.g.s.#.v.6.q.q.e.7.m.z.|.0XyX9X5Xl.P y y e r < - = < < 4 + ].                  ",
"          y.=X!.g.@.#.W T n.4.q.5.2.W #.=.G.7XaXwX,XK.P g y * < < = < < 4 + '.                  ",
"        C.|.=Xh.%.E D ' 2.2.7.5.' Y W 6.&.h.G.,XyX0XoXx o.j 0 - < = < < 3 + '.                  ",
"        A :XXX%.W e.^.F ` ( e. .T T W W q.L -.z.2XrX-X&XV j j 0 < = < < 3 O '.                  ",
"        A =X^.1.R _ F ] ] [ 5.1.' ' T 3.R e.T m.f.rXrX>X5XO.w 1 < < < < 3 O '.                  ",
"        p.XXM.3.5.Y ] [ ] [ <.q.Y Y U W ,.J ` T $.$X>XyX<XC $.S 0 < < < 3 O '.                  ",
"        u.=Xv.{ ! 2.( ` [ _ q.q.q.R ' R ) ( ( ) B.$.+XyX7X,XP S 0 < , < 3 # ].                  ",
"      aXA XXm.1.3.! Y ' ` _ 4.-.-.#.R _ ( / ] ` G 0.L.=XrX=XL.P r 1 , < 3 # ].                  ",
"      gXp.XXs.1.3.! T Y ) ' %.L.}.l.| ' ] / ) _ <...J.I.7X;XXXX.j t , ; 6 o @X                  ",
"      gXB XXv.1.W W ' ( Y ' -..XwX+X-.7.F ( ' >.:.:...N.f.;X$XV k 1 9 < & $ ].                  ",
"      sXB =Xm.W ' R _ ) ) 8.h..XtX<Xg.N.T ' Y R :...1.h.j.%X;XE.k r , 9 : o @X                  ",
"      gXp..Xm.R _ >._ Y ( 3.0. X9XtX=Xh.^ T ,._ G >.E &.k.$X;XG.k t < ; 7 @                     ",
"        C.OX-.q.R >.( [ e.8.6.=.}.=X$Xa.N. .( ( >.U M.v.k.+.$XE.} j < ; 7 @                     ",
"        m ,XXX-.4.5.,.( ' Y 7.0.P.XX=Xh.m.4.,.2.' 8.3.3.%.x.,X!.g.P < - . 0X                    ",
"        dXB =X~.%. .R Y ) Y ' R Q 6.m.m.0.>.' ( / ) _ R B.%.$X$X~.k q 6 X                       ",
"        dXy.=X!.$.L | 1.' ' _ ' Y 8.7.M.W R 8.( ] ( [ _ q.0.;X;X~.X.q : X                       ",
"          r.-X;XW.@.6.Q.R W R >.' ) 8.B.U T ' ( ` ` ) R 7.N.&X;X~.z q 5                         ",
"          fXt.,X!.d.&.M.B.>.>.R ' F [ 9.{ W Y Y ( _ 5.W M.$.;X%XE.z 7 5                         ",
"            qX_.7XXX^.%.E 4.W ' _ _ ` ,.7.! W 7. .7.0. X-.x.;X%XR.f s                           ",
"              ).U.5X=X^.h.#.T ' >.<._ _ 7.#.#.E M.@.J. Xg.l.=XT.B a                             ",
"                @XA.,X,Xx.o.! U Q R _ <.M.6.6.~ I h. XL.G.:X7XF.p                               ",
"                  4Xi.u.=X=XP.%.%.#. .7.q.3.m.m.m. Xj.f.XX,X>Xy.                                ",
"                    jXtX_.=X=X$X^.P.&.6.M.6.v.s.V.K.G.7X,X>Xi.                                  ",
"                        [.U.Y.=X;X=X~.P.Q.P.Q.Q.$X$X,X&X_.                                      ",
"                          6X4X).U.<X,XXX=X=XXX;XG.Y.Y.                                          ",
"                                6XA.C.H.F.F.H.F.                                                ",
"                                                                                                ",
"                                                                                                ",
"                                                                                                ",
"                                                                                                ",
"                                                                                                ",
"                                                                                                "
};
