/* XPM */
static char *_420fa723c01470bbc3b58c321f5b534cdqKSVCMr5YhpfYV[] = {
/* columns rows colors chars-per-pixel */
"48 48 235 2 ",
"   c None",
".  c #0B0B0E",
"X  c #190C05",
"o  c #1B140A",
"O  c #0D0B10",
"+  c #120D16",
"@  c #131215",
"#  c #151419",
"$  c #19171B",
"%  c #1B1A1D",
"&  c #191B19",
"*  c #370905",
"=  c #27170A",
"-  c #331E02",
";  c #35170B",
":  c #221A16",
">  c #291D17",
",  c #371915",
"<  c #250C0F",
"1  c #1E251D",
"2  c #382709",
"3  c #22211D",
"4  c #282319",
"5  c #332414",
"6  c #392718",
"7  c #323019",
"8  c #1E1D21",
"9  c #1E1027",
"0  c #1B0E22",
"q  c #211E24",
"w  c #371728",
"e  c #331329",
"r  c #1D2628",
"t  c #232225",
"y  c #2A2423",
"u  c #262A24",
"i  c #2C2A23",
"p  c #252529",
"a  c #29262B",
"s  c #2B2B2C",
"d  c #25292C",
"f  c #312B2C",
"g  c #352725",
"h  c #38342B",
"j  c #252331",
"k  c #2D2B31",
"l  c #292835",
"z  c #312E32",
"x  c #33243B",
"c  c #372B3C",
"v  c #263331",
"b  c #333233",
"n  c #3B3935",
"m  c #343439",
"M  c #3A3637",
"N  c #471207",
"B  c #571B04",
"V  c #441C1C",
"C  c #520E1B",
"Z  c #6F0B18",
"A  c #422F07",
"S  c #592902",
"D  c #44271A",
"F  c #553B1B",
"G  c #483514",
"H  c #783707",
"J  c #69310B",
"K  c #550D27",
"L  c #461629",
"P  c #571729",
"I  c #621E2B",
"U  c #4C2222",
"Y  c #462827",
"T  c #542224",
"R  c #45352D",
"E  c #433B33",
"W  c #443B35",
"Q  c #563133",
"!  c #6A2728",
"~  c #78212E",
"^  c #613626",
"/  c #652532",
"(  c #7B373F",
")  c #742D33",
"_  c #684A1D",
"`  c #76481A",
"'  c #4B432D",
"]  c #48433D",
"[  c #57443B",
"{  c #56432A",
"}  c #76552A",
"|  c #6F4B2F",
" . c #7A6436",
".. c #6E623A",
"X. c #3E3C42",
"o. c #443E40",
"O. c #7B3A49",
"+. c #434245",
"@. c #45444A",
"#. c #4A4A4B",
"$. c #484444",
"%. c #524D4A",
"&. c #564C46",
"*. c #56524C",
"=. c #4D4C53",
"-. c #4E5254",
";. c #575557",
":. c #65564A",
">. c #73554E",
",. c #7B5959",
"<. c #675557",
"1. c #5E624F",
"2. c #69614D",
"3. c #6A655A",
"4. c #736757",
"5. c #75764F",
"6. c #5C5B62",
"7. c #5C6471",
"8. c #686669",
"9. c #786965",
"0. c #77736B",
"q. c #676679",
"w. c #7B7772",
"e. c #6E7470",
"r. c #823D0E",
"t. c #873D16",
"y. c #A71D37",
"u. c #91303A",
"i. c #A9273C",
"p. c #B62E3C",
"a. c #921D2D",
"s. c #C2293E",
"d. c #904E1A",
"f. c #8A5A2D",
"g. c #AA5E31",
"h. c #8F6D33",
"j. c #873B41",
"k. c #963848",
"l. c #9C324F",
"z. c #A73747",
"x. c #B52F45",
"c. c #C32D46",
"v. c #865153",
"b. c #A2454F",
"n. c #937F5B",
"m. c #807B5B",
"M. c #A07B46",
"N. c #AC5F67",
"B. c #866D69",
"V. c #87766D",
"C. c #847B76",
"Z. c #977172",
"A. c #7D847D",
"S. c #988356",
"D. c #AE835B",
"F. c #B78B5E",
"G. c #93827B",
"H. c #8F836F",
"J. c #B49975",
"K. c #B98F67",
"L. c #C7905A",
"P. c #D99862",
"I. c #E99F6E",
"U. c #DDAC78",
"Y. c #D1AB74",
"T. c #E2B37D",
"R. c #7C7F88",
"E. c #A27F83",
"W. c #D47E8B",
"Q. c #7F8384",
"!. c #89898A",
"~. c #959288",
"^. c #979797",
"/. c #978883",
"(. c #A79993",
"). c #B79993",
"_. c #AE918A",
"`. c #93A097",
"'. c #B2A699",
"]. c #B1A58F",
"[. c #969EA0",
"{. c #ADADAE",
"}. c #A7ACA2",
"|. c #B7B1AB",
" X c #B3B2B2",
".X c #BAB6B5",
"XX c #B9A6A0",
"oX c #CA9494",
"OX c #D4979A",
"+X c #DA8A97",
"@X c #D5B589",
"#X c #CFA89A",
"$X c #E8B580",
"%X c #C8A8A5",
"&X c #C5B7A8",
"*X c #D2B1AC",
"=X c #D8AEAB",
"-X c #E8B3B4",
";X c #F5ABB5",
":X c #DD919F",
">X c #D8C59A",
",X c #E2C092",
"<X c #CAC3BC",
"1X c #D7CBBC",
"2X c #D2C8B7",
"3X c #E6CEBB",
"4X c #BDBCC5",
"5X c #FFBBC8",
"6X c #CBCDCA",
"7X c #DBCDC2",
"8X c #D7C9C1",
"9X c #DAD1C3",
"0X c #DBD2CB",
"qX c #DAD9D9",
"wX c #CBCFCE",
"eX c #E5CBC7",
"rX c #E4DACB",
"tX c #EAD8C8",
"yX c #EADED4",
"uX c #E4DDD6",
"iX c #FFDDDB",
"pX c #FCD7D4",
"aX c #FFC2CA",
"sX c #EDE3DC",
"dX c #E7E3D7",
"fX c #F5E5DA",
"gX c #FFD7E9",
"hX c #EDE6E2",
"jX c #E6E7E8",
"kX c #F1E9E4",
"lX c #FEEBE5",
"zX c #F8F6EE",
"xX c #FEFEFF",
"cX c #FDFDFC",
"vX c #F7F8F5",
/* pixels */
"                                                                                                ",
"                                                                                                ",
"                                                                                                ",
"                                                                                                ",
"                                                                                                ",
"                                                            cXcXcXcX                            ",
"                                              {. X X X X X X{.{. XjXcXcX                        ",
"                            p s s s a p p s s a a a s a a p t q b  XcXcXvXcX                    ",
"                        =.a % 8 q % q $ 8 t 8 % 8 % 8 % % % $ $ % 8 #.+.#.@.;.                  ",
"                        # @ @ 8 # @ + % O + $ # @ @ % % # # 8 O # @ O O @ $ .                   ",
"                      !.t p a 8 q a p z a z q t t p q a s q q q t . t % t p t                   ",
"                  !.p % 8 @.-.s z f q a t t z k z k k a 8 a k 8 k @ p M +.s p vX                ",
"              ^.!.#.% p a +.;.X.M y f a f f M $.q a @.X.@.b t % t 8 k b @.z s !.^.              ",
"              n t @ t % t #.6.;.%.M y f b f o.;.z M ;.;.6.m s 8 p p @.+.=.k p s m               ",
"              ] s @ p t p t t k y g 8.hXC.: M y y t t z t q k # p $ t # % p t s t s             ",
"              s t % t % k p l a n uXkXsXhXkX%.i hX<Xy f f t s !.qXp t 8 p q k p M               ",
"          }.A.& d % % t t q j ^.^.w.w.0..XkX&.i sX0X(.9.g f s !.qXi y % q s p p m               ",
"          e.m % p @ u 3 y f p qXqXn W W (.uX3.E sXyXlX(.R W b ~.uXg f y p 8 k s m               ",
"              X.s @ 3 4 4 4 o sXdXzXdXsXuXkXsXsXfXfXfXyXsXuXjX^.dX0.<X$.: p p s s t             ",
"              X.t 8 & 4 4 '.fXyXyX4 g 4 (.uXsXfXrXfXyXsXfX;.u & : :..X%.s q p s s r e.          ",
"              4X X8.t 4 = (.3X4.,.).(.(.G.3.8XuXdXdXrX'.3.V.(.w.(.R &.i & a a {.                ",
"              jXwX8.b i > (.1X[ [ eXeX8XV.] |.9X1X1XrX~.W (.eX/.8Xg h : f h s                   ",
"              =.m -. X%.4 /.'.&X*X*X*X7X9X<X9X7X9X1X<X1X<X&X7XZ.2X*.}.] O ^.6Xb n               ",
"              b @ t *.] &.*.<.>.>.>.[ > : = 6 ; ; = 5 5 > > , R :.g &.: @ $.*.& 3               ",
"              E X h 4.:.9.B.B.B.V.V.:.= = < ; * * * ; ; = = = [ C.E 3.i @ *.C.s #.              ",
"              ' 2 X ; 2 ; ).eXtXtX1X].5 B.).#XoXOXoXoX%X).[ , C.9X3..Xn y s 3                   ",
"          H.{  .J.} D.} ^ ^ F 3XtXdXrX&XB.Q _.OXoX=XOXZ.Q G.|.(.0Xn W w.                        ",
"          4.2 } T.f.L.` J } } ].].].&XfX).v.%X-X-X-X=X).,.'.sX0.'.*.0.                          ",
"          2.- } T.H H S B D.,XA 2 7 2.fXfXfXiXiXpXpXiXpXfX8XhXh h                               ",
"          4.A _ T.H r.H N F.@X>X&X5 5 D D , U U U V L V , g >                                   ",
"          1.2 } U.H t.B B K.@XF { 3X).N ) ( P C aX;XO./ T E.eXM $.                              ",
"          3.7 | @Xd.g.H J f.n.2 D pXOXC ~ k.~ ~ ;X+Xk.j.I Z._.<.                                ",
"          3.o :.@Xf.I.g.r.S 2 5 Y iXOXZ a.i.z.k.k.k.k.k.k./ w     t b                           ",
"              ' 2 ` P.d.d.S - rXrXV ! u.x.x.i.x.Z k.5X:Xk.K Q     a y                           ",
"              h 2 _ U.L.P.` 2 tX3XD ! u.p.s.c.x.i.z.z.b.j.! , > M                               ",
"                  ..f.h.Y.M. .S.H.D B u.x.i.y.x.u.u.W.N.j.T 6 V.                                ",
"                  5.2  .Y.Y.@XG - , ^ v.k.l.l.k.K O.gXOX,.U g                                   ",
"                      5.- S.J.J._.; , L C K K L e L w e w w :                                   ",
"                        5.G 2 ; , < < w c j x x 0 9 x x x + $                                   ",
"                          0.5 R g g c q.q.7.q.7.r l q.q.q.l p                                   ",
"                                zXf a l d r r v r k j c j l d                                   ",
"                                hXy -.[.-.v `.}.u n ^.8.d R.{.                                  ",
"                                  u ;.6Xe.1 wXzXi ] 6XQ.k 4X                                    ",
"                                  r t u s 3 dXzXu 3 u s r                                       ",
"                                                                                                ",
"                                                                                                ",
"                                                                                                ",
"                                                                                                "
};
