/* XPM */
static char *_0df2a6427fb467aa667fd2f004eb249[] = {
/* columns rows colors chars-per-pixel */
"48 48 235 2 ",
"   c #0FBCCF",
".  c #17B8C9",
"X  c #0DB4D5",
"o  c #04BDD4",
"O  c #0CBCD4",
"+  c #01B7DE",
"@  c #03BDDD",
"#  c #0BBDDC",
"$  c #1DB6D3",
"%  c #13BCD4",
"&  c #1BB9D4",
"*  c #13BDDB",
"=  c #1BBDDA",
"-  c #13B6D7",
";  c #20B6CE",
":  c #24BDCF",
">  c #24BBD3",
",  c #2ABDD4",
"<  c #2ABCDA",
"1  c #25BADB",
"2  c #03BDE3",
"3  c #0BBDE3",
"4  c #04BEEA",
"5  c #0BBDEA",
"6  c #13BDE3",
"7  c #1BBFE2",
"8  c #13BEEA",
"9  c #0EBFF1",
"0  c #03C3D6",
"q  c #0AC2D5",
"w  c #03C3DD",
"e  c #0CC3DB",
"r  c #01C8DD",
"t  c #0BC9DC",
"y  c #14C3D5",
"u  c #1EC0D6",
"i  c #13C3DC",
"p  c #1AC3DD",
"a  c #13CADF",
"s  c #1BC9DD",
"d  c #22C3D7",
"f  c #28C3D7",
"g  c #23C4DB",
"h  c #2BC3DC",
"j  c #23CCDF",
"k  c #2BCEDF",
"l  c #32C3DD",
"z  c #37CCDB",
"x  c #3CD2DF",
"c  c #36D8DD",
"v  c #02C3E3",
"b  c #0BC3E3",
"n  c #02C9E4",
"m  c #0CCAE4",
"M  c #03C4EA",
"N  c #0BC3EA",
"B  c #02C9EA",
"V  c #0DCBEA",
"C  c #13C4E3",
"Z  c #1CC5E4",
"A  c #14CBE4",
"S  c #1CCBE4",
"D  c #13C3EA",
"F  c #1EC5EB",
"G  c #14CBEA",
"H  c #1BCBEB",
"J  c #0ED3E4",
"K  c #14D2E5",
"L  c #1CD1E5",
"P  c #13D2EB",
"I  c #1CD2EC",
"U  c #1BD8EE",
"Y  c #0BC8F1",
"T  c #16CEF1",
"R  c #1CCCF1",
"E  c #16C5F0",
"W  c #1DD4F4",
"Q  c #1FDEF8",
"!  c #18DBF1",
"~  c #23C2E3",
"^  c #2BC3E4",
"/  c #24CDE4",
"(  c #2BCBE3",
")  c #23CDEC",
"_  c #2CCDEA",
"`  c #23C1E8",
"'  c #37C6E2",
"]  c #33CDE4",
"[  c #3DCBE5",
"{  c #36CCE9",
"}  c #23D1E2",
"|  c #2DD4E4",
" . c #2ED9E6",
".. c #23D2EB",
"X. c #2BD4EC",
"o. c #24DAEE",
"O. c #2CDAED",
"+. c #33D6E6",
"@. c #3BD4E5",
"#. c #3CDAE7",
"$. c #34D4EC",
"%. c #3BD5EC",
"&. c #33DBED",
"*. c #3BDBED",
"=. c #35DCE5",
"-. c #23CCF2",
";. c #2DCEF1",
":. c #23D4F3",
">. c #2CD5F3",
",. c #24DBF3",
"<. c #2BDBF4",
"1. c #24D6FA",
"2. c #2DD5FA",
"3. c #25DBFB",
"4. c #2CDCFB",
"5. c #34D5F3",
"6. c #3BD5F2",
"7. c #33DBF4",
"8. c #3BDBF3",
"9. c #35D7FA",
"0. c #39D6F9",
"q. c #33DBFB",
"w. c #3ADCFC",
"e. c #2EE0EE",
"r. c #3DE2EF",
"t. c #24E1F2",
"y. c #2DE1F4",
"u. c #2AE1FA",
"i. c #26E0F9",
"p. c #32E1F4",
"a. c #3CE1F4",
"s. c #33E1FD",
"d. c #3BE2FC",
"f. c #3EE8F9",
"g. c #45CBE4",
"h. c #42CBEB",
"j. c #50C8EA",
"k. c #43D3E4",
"l. c #4BD3E6",
"z. c #42D8E7",
"x. c #43D4EC",
"c. c #49D6EB",
"v. c #42DAED",
"b. c #4CDAED",
"n. c #4DDBE5",
"m. c #54D4EB",
"M. c #5ED6EB",
"N. c #52DCED",
"B. c #5ADBEC",
"V. c #57D8E5",
"C. c #43D5F2",
"Z. c #4BD6F3",
"A. c #43DCF5",
"S. c #4CDDF4",
"D. c #41DDFB",
"F. c #4ADEF9",
"G. c #52DCF2",
"H. c #5BDDF4",
"J. c #53DFFB",
"K. c #5EDDFA",
"L. c #55D3F2",
"P. c #64DDEC",
"I. c #6CDDED",
"U. c #72DDE7",
"Y. c #65DEF9",
"T. c #6ADDF3",
"R. c #76DFF2",
"E. c #41E1EF",
"W. c #54E1EF",
"Q. c #57E2EB",
"!. c #43E3F5",
"~. c #49E1F7",
"^. c #43E4FE",
"/. c #4BE4FC",
"(. c #45EBFD",
"). c #4CEBFF",
"_. c #46EBF1",
"`. c #54E2F4",
"'. c #5BE2F5",
"]. c #50EFF5",
"[. c #5DECF6",
"{. c #54E3FC",
"}. c #5CE4FC",
"|. c #54ECFE",
" X c #5CEBFE",
".X c #40F1FF",
"XX c #4CF3FF",
"oX c #53F3FF",
"OX c #5CF2FF",
"+X c #5CFAFF",
"@X c #56F9FF",
"#X c #6BE1EF",
"$X c #76E8EF",
"%X c #64E5F3",
"&X c #6CE4F6",
"*X c #63E4FB",
"=X c #6BE4FD",
"-X c #64ECFF",
";X c #6BEDFE",
":X c #73E5F4",
">X c #72EBF6",
",X c #7DEBF6",
"<X c #73E4FE",
"1X c #7CE7FF",
"2X c #74ECFE",
"3X c #7BECFE",
"4X c #7CE6F4",
"5X c #63F2FF",
"6X c #6BF3FF",
"7X c #63FAFF",
"8X c #69F8FF",
"9X c #74F2FE",
"0X c #7CF3FE",
"qX c #7BFCFF",
"wX c #72F5FB",
"eX c #89E6EE",
"rX c #88EDF7",
"tX c #88E6FF",
"yX c #84ECFE",
"uX c #8BECFE",
"iX c #85E7F6",
"pX c #95EAFD",
"aX c #82F3FE",
"sX c #8BF3FD",
"dX c #8CFCFF",
"fX c #92F6FF",
"gX c #93FDFF",
"hX c #9CFDFF",
"jX c #9AF1FF",
"kX c #A3EBF7",
"lX c #A3FFFF",
"zX c #ACFFFF",
"xX c #B3FFFF",
"cX c #BBFFFF",
"vX c #C7FFFF",
/* pixels */
"F.-X1XiXkXpX-X8.$./. X X8.!.2X2X X) e m 5 9 5 5 M v 8.5X,XeXkXeX X8.c ].OX).x.-X9X-X~.i v v N 5 ",
"^ S.T.fXcXlXH.%.*.*.$.( 7.8.}.*XC.7.t w N 5 N N M N ( k.P.hXxXrXc.$.*.r.j _ 8.%.-X`.8.<.@ v N v ",
"( %.b.>XsXsXB.%.7.s e e I <.!.*.$.s.P w N 2 w w B v ) %.G.2XgXyXC.5._ p w V >.5.F.x.5.q.b v v B ",
"q.$.v.V.$X,XH.6...t w v @ G 7.7.7.<.Q n v b w r w V <.8.C.G.3X:XC.w.Z # M v b >.0.6.w.q.:.w b B ",
"4.7.*.n.0X:Xg.5.e n B M 5 8 X.$.>.4.4.m @ w 0 0 b R 9.6.x.'.2XV.%.-.m v M v v w w.;.9.2.<.w v v ",
"<.7.#.Q.sXsXH.A.* w v 2 5 6 0.g p s.q.S A m J J 4.q.9.6.Z.*XsX3XJ._ i o 2 b b # (.p ) 4.,.a G G ",
"<.*.m.yXzXcXfXY.G.] y e 6 ) oXu o W >.<.7.4.4.3.3.4.p.+.N.yXxXzX1XK.8.p e O = C.OX& a ,.<.<.<.q.",
"k S.&XuXzXpX1X9X5X|.X.o.<.d.7X, y e ..s.>.q.H b b i / #.;XsXhXtX1X;X7X7.,.:.6.-X-X; q t <.7.<.q.",
"z N.*X2X2XK.6.= $..XK 0 0 % G.;X1 = ) <.q.H b v w q | c.9X&X;Xc.$.p (.&.e # * & 2X}.O 0 <.q.,.m ",
"B.;X}.x.k.$.G @ i y.K 0 q g M.dX;X^ = <.5.* b e % g `.-X'.l.#.} o e } =.Z # # { 3X0X!.y / 5.S q ",
"wX%Xb.*.8.) 2 N i d.w.^.^.{.yXlX2X-X).7.$.] x.b.V.P.wXW.k.#.7.e w 0 | (.w.w.D.-XyXhX8X!./.6.$.( ",
";Xl.] X.7.I @ b O 5.^.5.~ < K.2X-X, $.$.8.|.;XhXcXhX;Xz +.7.s.e v t % oX5.q.7 h 9X9X@.d A.%.).OX",
"C.& F 4.i.U w @   j <.C 3 8 6 * O e ..s.X.d Z.<XzXhX[ - Z 4.4.D 3 3 7 9.2.5 4 v q o 0 o 9.0.Z e ",
"w.* D 4.,.o.S y ( f.A v M 2 B v t m 3.:.o.p $ L.tXgX%.* H 4.q.F F Z ^.-.8 4 M B n r V G q.q.I w ",
"&...<.<.O.7.5.1  X/.o v B v n o :.:.s.<.O. .( ] K.-X$.L p.O.7.7.$.( +Xp 3 N B w w m :.q.<.,.d.:.",
"*.&.&.7.+.x.}.=X-X& b B M B w e 2.q.A i y.O.O.*.l.*X*.&. .*.#.x.-X5X$.% b 2 b v b C w.2.e L <.<.",
"{.F.+.#.W.2XlXyX}.y @ v M B m C 4.# @ v b G O.@.2X>X`.E.+.v.*X0XlX>X] e v v B v b R D v w r 0 ! ",
"5X).a.#.'.0XhXsXx y @ M M Y u.4.G b M v 4 2 e ( 9XdX-X).8.A.'.dXlX:X( m v M v 3.4.1.V B v w @ n ",
"Z S O.O.*.k.P.2X{.&.m B @ T 4.A m w v M v b w   6X}.^ F >.7.#.N.P.*XC.:.5 b # <.<.C v v v M N v ",
"b # C S O.+.c.-XOX$.A v b 4.<.t n w B B @ v r i |.^ 6 3 D S &.*.c.8X).q.3 # ) >.<.e w B B v M 2 ",
"v 2 3 D 4.<.$.%. XD.H C C 4.<.t w B N N M v 0 o.XXX b b N G ,.<.$.!.d.5.p O <.4.3.w v n n B M v ",
"2 N N 2 b G 9.w.%.F.$.5.5.q.y.e v B 2 5 v e u !.F.- # v @ v b ,.p. .8.8.5.7.q.<.:.0 w n n B v 2 ",
"w w N 2 b H 9.6.F. XN.c.*.O.p.U b v M 2 O : M.gX<Xh.p w w w e >.>.0.|.|.x.6.>.q.7.S r v v 2 # D ",
"<.O e # S >.7.6.#.'.2X2X-Xz.@.*.O b 3 3 5.b.3XzXgX-X_ O 0 0 L <.5.%.c.-X2X;XF.%.x.l % O # G 2.(.",
"OX@.d $.*.=. .r.v.6XlXzXyX3XyXaX;X7XoX).(.6.{.-X X8X5X, d $.5.0.$.x.%X:XzXgX3X3XuXyX9X7XXXXXd.>.",
" XG.`.N.V.Q._.| #.-X3XtX<XT.fXhX2X'.h = * O * = ~ D.-Xg.G.`.}.S./.#.m.3XyXR.I.3XhXhX;Xc.u y e q ",
"%.J.;XaXlXgX[.=.8.8./.A.%.c.2X2Xb.6.* b v b v @ w O %.'.;XaXlXaXF.8.[ {.G.b.k.N.9X*Xc.$.O w v n ",
"^ C.L.yXxXhXN.*.5.q.F A 4.7.`.b.#.<.A b v B M M v e ( c.V.gXxXtXx.<.5.5.p Z 7.$.OXx.6.7.w v w w ",
";.6.Z.=XrXiXb.7.2.6 b @ b 4.8.#.*.7.} e w v M B v t / *.c.=XyX3X*.y.) 6 5 2 I q.0.6.w.4.m v n n ",
">.0.Z.B.,X$XS.7.-.E @ v N D >.7.X.7.O.i m v M v w A p.*.x.K.<X&X*.L 3 N 2 M m A 5.w.q.q.1.@ w w ",
"p.7.@.l.yX4Xm.5.b @ w r 2 2 4.) ) 4.7.s 0 w v b ,.S <.8.c.B.yX#X@...N Y 4 M o q (.( ..<.4.b b N ",
"O.=.v.;XsXhX2Xx.% t 0 0 b 3 ^.p b 3.4.<...i.3.3.<.s.<.$.c.2XhXaX[.j * 5 5 b 0 q oX. O.<.<.4.:.:.",
"8.#.b.0XzXzXdX2X-X/.A e # 5.OXf e V <.<.<.4.:.3.o.o.<.8.m.fXcXzX>X8X8X^ D b % @XoX. q I 7.7.>.7.",
"' c.[.qXdX3XP.V.-X~.>.W :.5.-Xk.% @ ..p.<...G 2 0 q ( C.9XsXsXU.%XN.-XD.:.W X.v.5X, y e X.7.q...",
"j.=X-X`.G.S.] = ^ w.R + b % V.1XZ.= p <.<.e b 2 m O x.-X X`.`.@.g = w.q.3 @ i > 3X=X( * ) q.G b ",
"2X;XG.v.$.>.6 3 C q.2.H # ( 2XlX;XC._ X.7.i O = & ' 6X6Xv.*.5.p # # H q.:.C   {.3XhX5X= 5.>.H 3 ",
"2XH.#.7.<.I @ m C d.^.).oXOX;XgX;X XoX7.*.8.}.0XuXuX1Xg.6.5.4.C m b ) ).d.XXoX X3XdX-X X|.A.5.^.",
"'.' ( <.4.:.w o o >.w.X.= $ [ G.x.> | *.a.~.-XdXvXxX%Xf X.q.4.3 v e = ^.7.p % . S.G.' $ *.=.8.8.",
"^.& p 2.q.-.e q s a./ O 6 3 e w m o j &.} % ( ;XjXhX@.O q i.q.6 @ e 5.0.F 3 b w e C X 6 <.y.S = ",
"q.p ..<.9.9.X.p $.a.e w b N v n v ,.<.7.y.S * , 3XaX( q t.,.>.5.X.p ).` 3 N v B v v W 3.i.,.,.i ",
"7.7.<.O.8.C.k.l 8X8.r w N 5 v b 3.q.2.2.q.q.>.6.c.}.*.O.p.O.7.#.@.x +X= 8 N v v v V 4.u.U ,.t.t.",
"v.8.O.7.v.G.9X2X}.= r v 2 N 2 2 4.) N 5 ) >.X.7.G.}.c.v.X.7.~.G.qX6X] p 2 4 b w w G 1.R C t K t.",
";X{.*.a.}.0XlXyXG.- w n w G W W U m v 2 N C S +.0XdX=X}.$.A.;XdXlX2Xf O 4 M v P I :.H 5 b b w G ",
"*X{.8.$.b.&XdX3Xc.( @ w v G 4.3.m w B B 4 2 b g 2XaXY.Z.0.8.G.3XsXP.%.C M M w 3.<.:.N 2 N N 2 5 ",
"Z Z >.7.A.k.m.;X}.8.C v v T 3.H b w B B M M 4 6 6Xm.{ Z <.O.#.G.H.;XF.<.v 2 b <.,.m v 2 v v 5 3 ",
"N @ b Z 7.*.v. X5X6.H b b 3.4.b B v v v v M 5 8 OX, - + m I &.*.x.5X/.7.@ v H <.,.r v M v v N 5 ",
"w w N N I O.=.*.{.6...A S 7.u.m v v N v v w i X./.& 3 N M V ..=.*.F./.$.S I >.4.3.v v M v v B B ",
"r v N 5 b A O.&.C./.<.o.7.&.<.t v v 5 5 v r } ).!.* 3 M M v i | *.%.~.8.<.,.<.4.:.v 2 B v r v n "
};
