/* XPM */
static char *a0b80369c6254e36a3cb1cb1c19b7297[] = {
/* columns rows colors chars-per-pixel */
"48 48 215 2 ",
"   c None",
".  c #79191B",
"X  c #6C221F",
"o  c #9F2E32",
"O  c #923D3C",
"+  c #AB2D30",
"@  c #A23D33",
"#  c #B53A3A",
"$  c #C23E3C",
"%  c #8C3D42",
"&  c #B73F40",
"*  c #9D4F4F",
"=  c #854847",
"-  c #BD4C44",
";  c #B5544E",
":  c #AB5959",
">  c #A7535A",
",  c #9A6D5B",
"<  c #9C655E",
"1  c #9D7059",
"2  c #A9775C",
"3  c #A46C53",
"4  c #947767",
"5  c #A47C62",
"6  c #AA7869",
"7  c #B2756B",
"8  c #BF7B7C",
"9  c #A36A63",
"0  c #C54041",
"q  c #DA524C",
"w  c #C15459",
"e  c #CE5E53",
"r  c #D15A56",
"t  c #D8575C",
"y  c #D24649",
"u  c #C66258",
"i  c #C75E63",
"p  c #CF646A",
"a  c #D46261",
"s  c #D26B6F",
"d  c #DE716E",
"f  c #C66A70",
"g  c #DB6E73",
"h  c #C07D75",
"j  c #DB7274",
"k  c #EB6A68",
"l  c #B1886B",
"z  c #AE8A72",
"x  c #B18D71",
"c  c #B38779",
"v  c #BC9175",
"b  c #AA8165",
"n  c #C0906C",
"m  c #C28D7C",
"M  c #C2867C",
"N  c #D4827E",
"B  c #FF867B",
"V  c #C37A81",
"C  c #AA8880",
"Z  c #B88781",
"A  c #BDAB89",
"S  c #9CB8BC",
"D  c #BEBFAB",
"F  c #AABFBA",
"G  c #CB9D8D",
"H  c #D39E8C",
"J  c #CA888A",
"K  c #FF8D86",
"L  c #FF8B8A",
"P  c #FB8A88",
"I  c #E99080",
"U  c #EE908C",
"Y  c #C9A387",
"T  c #D7AB8D",
"R  c #CAB08B",
"E  c #CCA097",
"W  c #DBAC9C",
"Q  c #D7A792",
"!  c #CDBC9A",
"~  c #C6B795",
"^  c #DDB19A",
"/  c #D1BF97",
"(  c #E0A09D",
")  c #F9A299",
"_  c #D59CA5",
"`  c #CFB9A5",
"'  c #CABCAB",
"]  c #DAB8A6",
"[  c #CCBAB0",
"{  c #D5A9A5",
"}  c #EFA9A9",
"|  c #E3B4A1",
" . c #FFB7AD",
".. c #F1BCB4",
"X. c #B8C5BB",
"o. c #C6C6AA",
"O. c #DBCDA9",
"+. c #C7CEBE",
"@. c #D8CDB2",
"#. c #CBD0B9",
"$. c #DAD4BB",
"%. c #E4C5A5",
"&. c #F9CEA9",
"*. c #E6D2AB",
"=. c #ECDDAC",
"-. c #F2D3AE",
";. c #FDDCAF",
":. c #F7D9AF",
">. c #ECC3BD",
",. c #EEC0B3",
"<. c #FDC3B1",
"1. c #FFCEB3",
"2. c #EDDDB4",
"3. c #EBDEBC",
"4. c #F5DBB3",
"5. c #FDDCB6",
"6. c #FDD6BB",
"7. c #F5DABB",
"8. c #FFDCBB",
"9. c #F8D4B7",
"0. c #EBE4B7",
"q. c #F1E2B3",
"w. c #F5E3BC",
"e. c #FDE2BC",
"r. c #F4EFBD",
"t. c #F8E8B9",
"y. c #B3BAC0",
"u. c #E2BAC2",
"i. c #B6C4C8",
"p. c #BACDD3",
"a. c #C4CACD",
"s. c #C5C4C9",
"d. c #DFCDCD",
"f. c #CED9C4",
"g. c #DDD8C3",
"h. c #CCD2D4",
"j. c #CDD7D8",
"k. c #D6DADA",
"l. c #FFCAC7",
"z. c #E2DAC6",
"x. c #EED5CD",
"c. c #E8DBC7",
"v. c #F5DBC4",
"b. c #FDDDC2",
"n. c #FFD5CD",
"m. c #FEDDCB",
"M. c #F8D3C1",
"N. c #E1DAD2",
"B. c #FADED5",
"V. c #DCE4DC",
"C. c #D3E5DE",
"Z. c #D8E2CA",
"A. c #ECE9CE",
"S. c #FDE2C3",
"D. c #F4ECC5",
"F. c #FEECC4",
"G. c #F5E3CA",
"H. c #FCE4CB",
"J. c #F1EBCC",
"K. c #FDEBCD",
"L. c #F5E7C2",
"P. c #E9EBD1",
"I. c #E7E9D4",
"U. c #F5E5D5",
"Y. c #FEE3D4",
"T. c #FDEBD4",
"R. c #FFE3DC",
"E. c #FFEBDC",
"W. c #F2E9D8",
"Q. c #EEF1DA",
"!. c #F6F2D3",
"~. c #FFF1D4",
"^. c #FFF2DD",
"/. c #FBF9DA",
"(. c #C4D9E2",
"). c #DBDEE1",
"_. c #D0DDE3",
"`. c #CFE3EA",
"'. c #DDE3E6",
"]. c #DAE6EC",
"[. c #D8E9E8",
"{. c #DDEAF3",
"}. c #DBF3F3",
"|. c #E1E4E7",
" X c #ECEBE4",
".X c #E3E7E9",
"XX c #E2ECEC",
"oX c #E9ECED",
"OX c #E1ECE2",
"+X c #FEEEE5",
"@X c #F9ECE7",
"#X c #E4F4ED",
"$X c #EBF4ED",
"%X c #EDFBEE",
"&X c #EAF4E8",
"*X c #FDF5E5",
"=X c #FEFCE2",
"-X c #FFF4EC",
";X c #F4FBED",
":X c #FEFCEC",
">X c #F3F5EA",
",X c #E6EEF6",
"<X c #FFEAF1",
"1X c #E5F4F5",
"2X c #E5FCF7",
"3X c #ECF4FC",
"4X c #E6FFFB",
"5X c #ECFDFD",
"6X c #E6F7F5",
"7X c #FFF3F3",
"8X c #F5FCF4",
"9X c #FEFCF3",
"0X c #F4FDFE",
"qX c #FCFDFE",
"wX c #F5F6F1",
/* pixels */
"                                                                                                ",
"                                                                                                ",
"                                                                                                ",
"                                                                                                ",
"                                                                                                ",
"                                                                                                ",
"                                                                                                ",
"                                                                                                ",
"                                                                                                ",
"                                                                                                ",
"                                          -X9XR.R.+X-X                                          ",
"                                            = } ( c                                             ",
"                                        Z : p o I N ..C                                         ",
"                                        * w k L d ) n.9 {                                       ",
"                                        w t 0 K ) <. .) % l.                                    ",
"                                      . + y $ K u I @ P i >                                     ",
"                                    O r q q P L a K B K # f <X                                  ",
"                                    X u e - j j g a L k # f <XqX                                ",
"                                i.|.x.Z M 7 J V > s & r ; 8 d.h.h.                              ",
"                          j._.1X(.].wX9X-X9X7Xu._ 8 : N h >.9XXXoXj.a.).                        ",
"                  0X0XqXqXqXp.5X5XF X.%X%X$X8XqXqX<X7X+X-X9Xk.0X].5X0XqXqX                      ",
"                C.[.0XqXqX0X(.S 2X0X0X2X4X4Xi.y.).).V.V.k.qXqXk.6X0XqX8X0XoX                    ",
"                V.OX$X|..X0X5X4X5Xj.'.'.p.a.a.s..XXX}.[.1X'.{.0X5XC.[.$X8X>X X                  ",
"              D f.&X>X X>XoX`.}.1XqXqX0X0X0XqXqX0X0X5X5X5X1X3XXX#X8X8X;X9X XN.                  ",
"              o.g.z.g.c.z.*XOX#X#XXX].].3X3X0X0X3X3XXX#X#X0X%X9X;X;XQ.Q.W.W.z.W.                ",
"            *X' @.c.G.S.S.@.$.I.I.>X$X].,X,X`.{.3XqXqX9X;X:XQ.P.A.!.J.T.G.T.G.U.                ",
"            -X' U.Y.b.9.&.4.2.0.J.o.#.+.8X#X#X#X0X&X9Xc.A.A.!.D.K.~.H.b.T.~.v.T.                ",
"          qX-X[ x.E.| 2 n ;.7.2.L.3.3.c.$.g.Z.f.I.P.T.^.G.T.G.K.H.H.Y x 5 S.b.H.                ",
"            -X[ B.Y.c H m 1 m.T.7.7.6.8.6.-.7.0.D./.S.S.H.m.E.*XT.Y b T l Y 7.v.                ",
"            *X` v.H.^ <.m., B.R.T.^ 3 3 1.1.4.w.F.w.~.Q , c ] R.T.z ^ b.Y %.7.H.                ",
"              ! *.e.5.T v m.+X+XE m W | 7 ,.E.z.:X=Xv.5 ] W 6 n.^.7.x x 8.b.S.                  ",
"              ! *.4.5.5.:.7.T.Y.G Q m.l.< >.+X&X9X:X4 c M.m., m.T.K.S.S.K.S.                    ",
"                =XA O.7.4.4.7.-.5.&.2 6 Y.Y.@X X9X:XE.M.5 v S.e.F.e.F.w.A                       ",
"                    T.H.%.R 4.5.;.;.&.6.b.v.W.Q.=X=XT.H.b.F.4.=.q./                             ",
"                          :X` ` *.*.-.-.5.4.q.0.r.r.w.F.e.*.! O.                                ",
"                              9X=X/.~ A 2.=.q.=.q.q.2.A A                                       ",
"                                  :X:X      ! ~                                                 ",
"                                                                                                ",
"                                                                                                ",
"                                                                                                ",
"                                                                                                ",
"                                                                                                ",
"                                                                                                ",
"                                                                                                ",
"                                                                                                ",
"                                                                                                ",
"                                                                                                ",
"                                                                                                "
};
