/* XPM */
static char *_51dcd4dad0d4817fcbfc1a3b35ef906G3w0I1QmBX5ck5qb[] = {
/* columns rows colors chars-per-pixel */
"48 48 200 2 ",
"   c #2E0B01",
".  c #350E01",
"X  c #3A0D00",
"o  c #2E1206",
"O  c #2E140D",
"+  c #341204",
"@  c #3A1202",
"#  c #33150A",
"$  c #3A1609",
"%  c #33190D",
"&  c #3C190B",
"*  c #3C1905",
"=  c #2D1610",
"-  c #301713",
";  c #361912",
":  c #391D13",
">  c #361D1A",
",  c #3C1F19",
"<  c #3C2114",
"1  c #3B2019",
"2  c #450F00",
"3  c #421301",
"4  c #4A1701",
"5  c #441904",
"6  c #441D0D",
"7  c #491F0E",
"8  c #431D12",
"9  c #4A210F",
"0  c #43200D",
"q  c #57250E",
"w  c #452212",
"e  c #4A2413",
"r  c #45251B",
"t  c #4C261A",
"y  c #4E291B",
"u  c #522515",
"i  c #502A17",
"p  c #542C1C",
"a  c #592D1C",
"s  c #53271A",
"d  c #5D311E",
"f  c #632F17",
"g  c #6E351B",
"h  c #61311B",
"j  c #723B1C",
"k  c #462A23",
"l  c #4E2D23",
"z  c #542D23",
"x  c #4E3227",
"c  c #553122",
"v  c #5B3322",
"b  c #5C3A2C",
"n  c #51352A",
"m  c #643524",
"M  c #643A27",
"N  c #6A3A25",
"B  c #643B2A",
"V  c #6A3D2C",
"C  c #603429",
"Z  c #713B22",
"A  c #713E29",
"S  c #643D33",
"D  c #6A3E32",
"F  c #5E4038",
"G  c #66402E",
"H  c #6D402D",
"J  c #78462F",
"K  c #734229",
"L  c #644234",
"P  c #6B4232",
"I  c #6F4837",
"U  c #6E4738",
"Y  c #6F4A3A",
"T  c #734736",
"R  c #784736",
"E  c #714B3A",
"W  c #7C4F3B",
"Q  c #784B34",
"!  c #7D5039",
"~  c #764F40",
"^  c #7C5443",
"/  c #7F5847",
"(  c #7B5B4E",
")  c #765447",
"_  c #7A5C52",
"`  c #7A6053",
"'  c #80482D",
"]  c #884D2D",
"[  c #844E36",
"{  c #884F3B",
"}  c #83533D",
"|  c #8B553B",
" . c #8D5A3D",
".. c #8F5235",
"X. c #955535",
"o. c #995735",
"O. c #965936",
"+. c #9A5936",
"@. c #95563A",
"#. c #99573B",
"$. c #955A3C",
"%. c #9A5B3D",
"&. c #A15F3D",
"*. c #A05C35",
"=. c #97613F",
"-. c #9C613D",
";. c #A2623E",
":. c #815646",
">. c #855944",
",. c #8E5B44",
"<. c #815949",
"1. c #8D5E49",
"2. c #8E5742",
"3. c #945C42",
"4. c #9A5D41",
"5. c #955E49",
"6. c #985E48",
"7. c #935F51",
"8. c #A15F43",
"9. c #8E604A",
"0. c #956045",
"q. c #9C6143",
"w. c #93624C",
"e. c #9A6249",
"r. c #9B6A4F",
"t. c #82645A",
"y. c #916C5C",
"u. c #926152",
"i. c #A36445",
"p. c #A96746",
"a. c #A46649",
"s. c #A5694B",
"d. c #AB6C4C",
"f. c #A96B47",
"g. c #B06F4E",
"h. c #AB724F",
"j. c #B4734D",
"k. c #A66E53",
"l. c #AB6F51",
"z. c #A16F58",
"x. c #B06D50",
"c. c #A57054",
"v. c #AC7253",
"b. c #A5755D",
"n. c #AD7559",
"m. c #AF7A5A",
"M. c #B27454",
"N. c #B47957",
"B. c #B6775A",
"V. c #B27659",
"C. c #B2795A",
"Z. c #B37B5B",
"A. c #BA7C5D",
"S. c #9A7261",
"D. c #A07761",
"F. c #A87560",
"G. c #A47964",
"H. c #AA7A64",
"J. c #AF7F68",
"K. c #B67F61",
"L. c #B47E63",
"P. c #BA7D61",
"I. c #B6805E",
"U. c #AD826D",
"Y. c #B78062",
"T. c #B78165",
"R. c #BB8162",
"E. c #B3836C",
"W. c #B5856D",
"Q. c #B4836C",
"!. c #B8836A",
"~. c #BE8B6D",
"^. c #AE8574",
"/. c #AC8878",
"(. c #B38771",
"). c #B38B75",
"_. c #B28C7B",
"`. c #BF9175",
"'. c #BD927C",
"]. c #B6907B",
"[. c #C28D6D",
"{. c #C6916F",
"}. c #C9926E",
"|. c #C38E72",
" X c #C98E72",
".X c #C79477",
"XX c #C49274",
"oX c #C99273",
"OX c #C59379",
"+X c #C3937B",
"@X c #C8937A",
"#X c #CB9A7D",
"$X c #B49080",
"%X c #BD9583",
"&X c #BE9986",
"*X c #BF9A88",
"=X c #BA9688",
"-X c #C29682",
";X c #C49983",
":X c #CA9B84",
/* pixels */
"oXZ.$.$.4.$.d.v.%.$.B @ XXv.%.%.%.%.4.a.M.4.p 6 E.Y.%.M.M.%.%.%.+.$.V @ OX|.,.5.4.$.%.%.%.4.} @ ",
" XZ.$.$.q.s.s.a.%.$.B @ XXv.%.%.4.#.4.s.B.4.p w Q.K.$.M.M.%.%.%.%.$.V @ .X|.,.5.4.d.%.#.4.3.} @ ",
"oXC.4.q.a.l.q.%.%.$.M @ OXv.$.%.%.#.4.a.l.4.p w Q.K.$.V.V.%.%.%.%.3.P + OX|.,.6.a.M.&.%.$.,.:.@ ",
"oXC.%.l.a.i.$.%.%.$.C @ OXv.$.4.%.%.4.$.q.3.p 6 Q.K.%.M.v.%.%.%.%.5.P + OX[. .4.%.%.d.s.4.w.) + ",
"oXZ.$.C.s.#.#.%.%.3.B @ +Xc.$.s.i.%.4.#.%.3.p w E.Y.%.s.a.%.%.%.4.5.P + OX[.$.$.+.o.p.a.$.9.) # ",
"{.I.@.M.a.#.4.%.%.4.B @ OXc.4.l.d.%.%.%.%.3.p w E.Y.$.%.%.$.%.%.$.5.P @ .X[.$.$.%.&.+.%.$.,.) % ",
"{.Z.$.v.i.%.4.%.%.4.B @ OXc.4.v.l.%.$.%.%.4.i w E.Y.$.$.$.%.%.%.%.3.H @ .X[.@.$.+.+.%.%.$.w.^ + ",
"}.N.%.v.a.%.%.%.%.4.B @ .Xc.$.v.d.%.%.$.$.0.p 6 E.K.%.%.%.4.4.%.%.$.H @ XX[.|  .q.X.q...' w./ # ",
"}.Z.$.$.%.%.%.%.%.3.V X .Xv.O.M.d.$.%.%.%.4.p w E.K.$.$.q.$.V.%.%.$.V @ +XQ.3 1.5.$.4.g 3 w.y.+ ",
"oXC.$.$.4.$.4.4.%.0.V @ XXh.-.d.d.4.%.%.%.3.p w E.Y.%.$.%.%.M.i.O.3.P + %X;X_.%X-X+X+XQ.b.S.y.  ",
"|.s.Z $.3.e.3.[ j ,.C @ XXd.i.i.i.a.%.$.%.$.p w E.Y.%.$.$.a.a.q.%.5.L # ) ) t._ ( <.<.:.^ Y L ; ",
"+X,.3 2.w.,.5.[ 3 >.L @ #Xd.O.%.i.v.%.$.%.$.p w Q.K.$.%.4.V.4.%.4.,.S # $ + # # # $ . + . $ # O ",
"-X).-X-X'.-X'.'.+X;X)   +Xn.%.%.i.B.%.$.%.$.p w Q.K.$.%.4.V.%.%.4.0.L # p p l l z i s p p t k = ",
"E I I E U P E E P I n # +Xv.$.%.i.B.%.$.%.4.p w E.K.%.%.$.a.%.%.#.6.V   <.W 6 E T R R m 6 y k O ",
"+ * + $ + & $ + @ + % # +Xk.$.%.i.M.%.$.%.4.i w E.K.$.%.$.4.%.%.%.6.P 5 H.r.5 ,.5.5.6.Z 3 v l O ",
"y t y t p t t i i y , # -Xv.4.%.i.M.%.%.%.6.i w !.K.$.%.4.#.%.#.%.$.V @ b.n.| 6.4.4.4.| | W ) # ",
"V M p u v V m N N m l + +Xn.$.%.i.a.4.%.%.3.a 7 T.Y.%.%.%.o.%.%.%.6.V @ L.V.4.$.4.$.4.4.$.0.^ # ",
"H.>.q f V ,.w.,.5.w.b $ -Xk.$.4.$.4.%.%.4.3.a 9 ~.Z.$.4.X.4.%.%.@.w.V * +X[.4.%.%.$.4.4.%.4.^ + ",
"H.J 4 ,.w.5.,.[ 2 } L + +Xv.q.#.#.%.%.%.%.,.p w J.0.4 c.L.3.,.q 4 w.E . +X|.@.4.%.4.4.$.%.$.^ # ",
"!.5.f 3.3.3.6.| g w.C @ @Xl.%.%.%.%.%.%.%.,.c w (.U.Q W.W.b.U.>.! G.( & '.~.$.q.%.%.$.#.%.$.^ # ",
"[.Y.3.0.$.0.e.@.%.3.v @ :Xc.O.%.%.%.o.%.4.,.c < U.-X&X*X_.%X=X$X].&X` + ]..X4.$.%.%.$.%.i.$.^ # ",
"oXZ.$.$.4.@.@.$.%.0.V @ |.c.%.%.%.%.%.%.4.,.l # + @   + $ # # # * + O % '.~.$.$.%.%.4.i.d.q.^ # ",
"oXC.$.@.%.%.4.%.#.$.C @ .Xv.%.%.%.%.%.%.$.,.l o w e t r r r w r 0 r < o -X|.$.%.%.%.4.i.B.0.^ # ",
"}.Z.$.%.$.$.4.$.$.0.C + .Xc.%.%.%.%.%.%.$.5.c % v d i c p p l y y c k o -X|.$.%.%.%.%.a.B.q.^ # ",
"oXC.$.q.$.$.4.$.$.3.G @ .Xc.$.%.%.%.M.d.$.,.c 8 G.9.@ :.<.a i 6 @ ~ F # '.|.%.g.f.%.%.d.M.0.^ # ",
"{.Z.$.a.4.%.q.$.$. .B . +Xn.$.$.%.8.x.i.4.5.p w E.z.h ,.,.N m d a :.S $ +X|.%.M.f.%.%.i.s.0.^ # ",
"oXZ.$.c.a.4.%.$.$.3.G + +Xn.4.$.%.4.M.i.4.0.i w Q.!.| 6.6.3.e.2.,.u.S . +X X%.B.d.%.%.%.%.$.^ # ",
"oXZ.$.v.a.%.$.$.$. .G @ +Xc.$.$.4.#.A.d.@.e.p w !.Z.0.n.v.4.6.6.6.5.D @ +X[.X.M.d.%.$.$.%.$.^ # ",
"oXC.$.v.a.%.$.%.i.@.B @ OXc.$.4.4.%.d.i.#.6.a 7 T.Z.4.B.B.X.%.#.$.,.P @ OX[.$.M.d.%.$.%.%.4.^ # ",
"oXC.$.M.a.%.%.-.M.4.M @ OXc.$.%.q.M.%.%.q.3.a 6 T.R.$.v.M.%.i.%.4.5.P + |.[.q.v.a.a.$.4.%.$.^ # ",
"oXC.$.M.a.%.%.&.M.q.B @ .Xv.%.$.q.V.+.O.q.$.p 6 !.Z.$.B.B.X.%.$.@.,.P @ +X~.$.$.a.c.$.4.%.$.^ + ",
"oXZ.$.M.a.%.X.%.i.@.V @ |.c.4.%.$.a.%.$.$.0.p w T.Z.%.M.M.%.%.$.$.3.B + +X~.0.$.a.B.4.%.%.4.:.+ ",
"oXC.$.M.i.%.%.%.%.$.V @ .Xc.#.4.4.4.#.%.0.,.p 6 !.Z.$.v.v.$.$.$.$.3.V @ +X[.$.%.s.v.%.%.4.3.^ + ",
"oXC.$.v.i.%.%.%.%.@.B X OXn.4.$.$.6.4.$.6.,.p e !.A.$.q.-.f.=.$.$.3.D @ +X~.4.%.$.a.d.i.%.3.^ # ",
"oXZ.%.M.a.4.%.%.%.0.G   ;X .K  .4.@.$.] j r.v 5 T.A.$.%.X.B.4.$.$.3.D @ +X~.4.$.$.$.M.d.#.6.^ # ",
"oXZ.4.l.a.4.%.%.#.0.v & %XK 4 } ,.$.$.j X H.v e !.A.%.4.%.M.#.%.%.3.D @ +X~.4.$.q.$.d.p.#.6.^ + ",
"oXC.$.q.%.#.#.4.%.5.L o &X;X-X'.'.+X`.+X+XD.b 6 W.P.$.%.#.8.#.4.%.3.D @ +X[.4.$.$.$.%.%.%.6.^ + ",
"oXZ.$.4.4.4.%.%.$.,.L # /.).).^.).U.).W.(.S.x r E.K.4.%.%.#.4.4.%.3.D @ +X[.4.%.@.%.#.%.%.3.^ # ",
"oXZ.4.4.s.d.i.$.q.,.S ;   @ * @ $ . * + . # - r U.L.6.$.%.%.%.$.$.3.D @ +X[.4.%.$.%.%.%.%.3.^ + ",
"oXZ.$.$.d.M.i.o.$.6.L # c i u z l z t z z l > 1 ^.L.4.$.$.$.$.%.$.3.D @ +X[.4.%.$.$.%.%.%.6.^ + ",
"oXm.$.$.a.i.i.i.%.$.V + T a u V D S D C 8 z > , ^.L.0.$.O.-.$.$.$.3.P @ +X[.$.4.$.$.%.%.%.3.:.+ ",
".XC.$.O.%.i.d.g.+.0.M & H.A 4 } 7.7.,.m 3 t ; r (.K.4.$.O.O.O.-.q.3.D @ +X[.$.%.%.q.%.%.4.3.^ + ",
"oXZ.$.$.$.%.d.d.+.$.V @ F.5.{ 5.@.4.q.$.| 1.p 6 Q.K.$.%.%.+.%.d.d.0.D @ +X{.4.$.q.d.%.%.4.4.^ + ",
"{.Z.$.%.%.%.M.d.%.$.V @ !.k.6.%.%.;.o.O.$.5.p 9 !.P.%.%.%.%.%.l.V.e.D @ `.~.4.%.a.M.%.%.%.4.^ # ",
"oXZ.$.%.%.%.M.d.%.4.V @ OXl.@.%.i.j.*.&.%. .p 7 !.R.%.%.%.%.8.d.v.0.D @ `.~.4.4.q.v.q.%.%.4.^ + ",
"oXC.$.4.4.$.a.q.%.4.B . |.c.q.%.;.j.o.+.%.3.v 7 T.Y.%.%.%.%.a.s.a.3.D @ +X[.$.%.$.a.a.i.%.6.^ + ",
" XZ.4.4.4.4.4.@.$.0.C @ #Xc.X.%.q.v.i.%.$.>.z r Q.K.$.4.$.4.s.q.%.3.D @ +X[.$.4.$.%.l.d.4.6.^ + ",
"oXZ.4.@.4.4.4.4.$.3.C @ XXh.-.O.$.4.%.$.6.w.y r (.L.$.q.$.$.e.$.%.6.P @ +X[.$.4.%.$.M.d.%.3.^ + "
};
