/* XPM */
static char *_802725328684ecc9a723ee314d93633[] = {
/* columns rows colors chars-per-pixel */
"48 48 210 2 ",
"   c None",
".  c #5C2507",
"X  c #6C290E",
"o  c #662406",
"O  c #6A3309",
"+  c #783B0E",
"@  c #632E15",
"#  c #712E1B",
"$  c #64331B",
"%  c #743114",
"&  c #7C3F17",
"*  c #723D15",
"=  c #61392E",
"-  c #75400A",
";  c #7B5947",
":  c #853C07",
">  c #813911",
",  c #894C09",
"<  c #964909",
"1  c #864817",
"2  c #964718",
"3  c #975710",
"4  c #99571C",
"5  c #A65517",
"6  c #B95E18",
"7  c #96730D",
"8  c #A66418",
"9  c #B5691C",
"0  c #B6751B",
"q  c #884F22",
"w  c #924B2B",
"e  c #81542D",
"r  c #945A2C",
"t  c #895E3A",
"y  c #A65824",
"u  c #B55F2C",
"i  c #B05F30",
"p  c #986134",
"a  c #AC632A",
"s  c #A6642A",
"d  c #B46B25",
"f  c #BB6628",
"g  c #B7762E",
"h  c #AC6736",
"j  c #B56A34",
"k  c #B57737",
"l  c #E75E0D",
"z  c #DB6C00",
"x  c #DC6B0D",
"c  c #D37303",
"v  c #DB7303",
"b  c #DB730C",
"n  c #D9790A",
"m  c #D2760F",
"M  c #C16C1C",
"N  c #DC6F1B",
"B  c #DA6816",
"V  c #CF751D",
"C  c #D57314",
"Z  c #D37C15",
"A  c #D9731C",
"S  c #DC7C1C",
"D  c #D4711C",
"F  c #E46205",
"G  c #E6630D",
"H  c #EE630A",
"J  c #E26A0D",
"K  c #EC6C0B",
"L  c #ED6601",
"P  c #F36505",
"I  c #F86403",
"U  c #F4650C",
"Y  c #F36B0C",
"T  c #FC6C0E",
"R  c #F76B04",
"E  c #E47403",
"W  c #E37D02",
"Q  c #E3730C",
"!  c #ED730B",
"~  c #E37B0C",
"^  c #EE7608",
"/  c #F77100",
"(  c #FB7205",
")  c #F2720F",
"_  c #E66B14",
"`  c #EC6B12",
"'  c #E3671C",
"]  c #E56B1B",
"[  c #EB6C1B",
"{  c #ED6617",
"}  c #F36B13",
"|  c #FB6C13",
" . c #F26D1C",
".. c #FC6D1A",
"X. c #F86110",
"o. c #E37414",
"O. c #EC7412",
"+. c #E4731C",
"@. c #EA741B",
"#. c #E67D17",
"$. c #F37215",
"%. c #FD7014",
"&. c #FD7A19",
"*. c #C5692B",
"=. c #CD6C2B",
"-. c #C66A24",
";. c #D56C25",
":. c #D96C24",
">. c #D46D29",
",. c #DA6D2A",
"<. c #C17521",
"1. c #C77A2C",
"2. c #CD782E",
"3. c #C47725",
"4. c #D37422",
"5. c #DA7423",
"6. c #D37B23",
"7. c #D5732D",
"8. c #DC742B",
"9. c #D37C2C",
"0. c #DD7C2F",
"q. c #CF6F37",
"w. c #C37734",
"e. c #CC7132",
"r. c #CA743C",
"t. c #CA7936",
"y. c #D77435",
"u. c #D97434",
"i. c #D57C3A",
"p. c #D8793A",
"a. c #E36E23",
"s. c #E56B24",
"d. c #FB6F22",
"f. c #EB7324",
"g. c #E47925",
"h. c #E3722C",
"j. c #E17A2B",
"k. c #E67527",
"l. c #F57826",
"z. c #E27633",
"x. c #E37D34",
"c. c #805845",
"v. c #965C44",
"b. c #A15E41",
"n. c #B16D46",
"m. c #B9774A",
"M. c #B77951",
"N. c #C16F47",
"B. c #C47546",
"V. c #C47942",
"C. c #CC7D44",
"Z. c #DA7B42",
"A. c #D07943",
"S. c #BE8327",
"D. c #DC8209",
"F. c #D98407",
"G. c #DD8616",
"H. c #E1870D",
"J. c #E48414",
"K. c #E48B13",
"L. c #EE841E",
"P. c #F68A1C",
"I. c #EF971C",
"U. c #F69B17",
"Y. c #DB8127",
"T. c #CB833B",
"R. c #D48439",
"E. c #D48635",
"W. c #FA8728",
"Q. c #EA9629",
"!. c #F99827",
"~. c #E9883E",
"^. c #F98835",
"/. c #FF9833",
"(. c #FDA42E",
"). c #E2AE38",
"_. c #FEAC33",
"`. c #FFAB3D",
"'. c #FAA839",
"]. c #EDB03D",
"[. c #FFB435",
"{. c #FFBB34",
"}. c #FFB53C",
"|. c #FEBD3C",
" X c #FCCB24",
".X c #FECC2D",
"XX c #FBD02C",
"oX c #FEC534",
"OX c #FECC34",
"+X c #FFC43B",
"@X c #F4C93C",
"#X c #FCCB3B",
"$X c #F4C736",
"%X c #FED13D",
"&X c #C98243",
"*X c #EF944A",
"=X c #D4A243",
"-X c #DAB34F",
";X c #F5A34D",
":X c #E7BA43",
">X c #FFB441",
",X c #FEBB43",
"<X c #FFB64A",
"1X c #FFBA49",
"2X c #EBA156",
"3X c #E5B958",
"4X c #FFC143",
"5X c #FFCA42",
"6X c #FEC34A",
"7X c #FFD148",
/* pixels */
"                                                            < A _ } ..X.U ` W.4.< q             ",
"                                                            &X7.j.B  .d...} @.5.t.r             ",
"                                                              h a *.,.' H U K a.t.+             ",
"                                                                  m.f ,.l.U } ] e.O c.          ",
"                                                                    h p.' | | ] p.& ;           ",
"                                                                      y a.l ..s.e.& ;           ",
"                                                                      h z.[ d.s.r.* ;           ",
"                                                                        u.] { h.C.O             ",
"                                                                        u.f.f.h.V.e             ",
"                                                                        7.' f.;.: t             ",
"                                                                      h 8.l.B x.1               ",
"                                                                      y :.] a.e.p               ",
"                                                                      f h.a.>.<                 ",
"                                                                    4 =.h.,.A.1                 ",
"                                                                  k 6 8.h.y.m.                  ",
"                                                                  R.4.8.=.2                     ",
"                                                              j *.;.4.2.s                       ",
"                                                            s i.,.8.9.d                         ",
"                                                        4 f =.~.>.0.w.                          ",
"                                                      8 M j.^.h.8.9                             ",
"                                                  s 9 9.C ^.f.+.6.g                             ",
"                                                a -.6.S /.W.@.N 3.                              ",
"                                            M.: e.Y.Z (./.x +.4.                                ",
"                                          4 w.2.5.C 1X,Xb +.D 1.                                ",
"                                        , 1.6.Z 1X,X,XG.b C ~.                                  ",
"                                      T.<.Y.Q.,X4X4XJ.c S V R.                                  ",
"                                  f -.x.S `.4X|.|.|.v Q 4.T.                                    ",
"                                d 5.f._ !.K.[.|.|.F.O._ -.k                                     ",
"                              V.j.J K &.P.~ v 1X>Xn J @.i.                                      ",
"                            C.>.f.$.Y L ! z J.`.<Xb g.0.j                                       ",
"                            5.@.[ G } &.Y ! b <XL.#.;X3                                         ",
"                          *X+.` } } } } U K n >Xo.A 2X-                                         ",
"                        a 8._ $.Y Y K $.H K n >XQ g.r.%                                         ",
"                        5 :.[ K Y P ) $.Y $.c }.Q N A.#                                         ",
"                        f h.[ } P I | H U ) H.[.E N A.X                                         ",
"                        -.a. .U T T | P | ! _.|.E o.r.X                                         ",
"                      5 7.s. .U Y L H Y ! ~ {.{.E +.q.X                                         ",
"                      5 ;.] ..U T Y ) ! v (.+X{.E ] q.%                                         ",
"                      3.g._ | T U Y Q c K.4X+X[.Q +.q.w =                                       ",
"                      E.A @.U | Y K v F.+X+X+X|.b f.u.N.@                                       ",
"                      <.C W.K Y %.K D.[.oX#X+X4X~ +.:.Z.> $                                     ",
"                      9 m !.O.! F O.!.+XoX#XoX+Xc o.@.B p.2 @                                   ",
"                      0 Q._.P.~ #.(.|.+X.XOXOXoX,Xz Y }  .z.u o .                               ",
"                      S.'.6X}.I._.,X5XoXOX.X.XOX{.W / R P G h.Z.B.n.v.                          ",
"                      =X].4X+X{.+X#X#X$X%X.X.X.X#XU.^ ( ( Y [ s.7.e.B.b.                        ",
"                      3X).|.oX%X.XOX%X@X#XOX.X.XoX+XW z E ! Y ` _ a.y.i                         ",
"                      -X:X7X$X.X.X.X%X#X#XOX.X.XoX5X4X_.>Xc O.| %.F k.=.                        ",
"                      7 :X@X%XXX X X#X7X#XoX.X.XOX+X4X6X,XG.O.P I T _ 5.h                       "
};
