/* XPM */
static char *_fbd15135cc24643af8c8fd9c7c82af4[] = {
/* columns rows colors chars-per-pixel */
"48 48 226 2 ",
"   c None",
".  c #681A00",
"X  c #5C2D09",
"o  c #5C330B",
"O  c #563307",
"+  c #5C2B15",
"@  c #5C2D1D",
"#  c #562B18",
"$  c #4D331B",
"%  c #553215",
"&  c #5D3516",
"*  c #5D321A",
"=  c #58391B",
"-  c #6B2702",
";  c #6A2B06",
":  c #642D0D",
">  c #672608",
",  c #712A0E",
"<  c #75290A",
"1  c #693607",
"2  c #783205",
"3  c #632D13",
"4  c #6C2A14",
"5  c #6A271B",
"6  c #722B13",
"7  c #762210",
"8  c #6D3413",
"9  c #63331C",
"0  c #6B3C18",
"q  c #783812",
"w  c #5D2F22",
"e  c #582D28",
"r  c #583229",
"t  c #573833",
"y  c #653423",
"u  c #59402A",
"i  c #813416",
"p  c #873D1B",
"a  c #913C17",
"s  c #884416",
"d  c #9E4E1F",
"f  c #984616",
"g  c #8C561A",
"h  c #9B5E1D",
"j  c #A34914",
"k  c #884725",
"l  c #9B5A20",
"z  c #914E31",
"x  c #895033",
"c  c #9C5B33",
"v  c #A44F26",
"b  c #A55A2C",
"n  c #AC522D",
"m  c #B55D2B",
"M  c #A85A34",
"N  c #8C612A",
"B  c #9E672E",
"V  c #936031",
"C  c #9C7532",
"Z  c #A96B2E",
"A  c #B6662D",
"S  c #BB7427",
"D  c #AE6039",
"F  c #BB653D",
"G  c #BC683A",
"H  c #B4643F",
"J  c #B8763C",
"K  c #DB6B06",
"L  c #CC770C",
"P  c #DA7503",
"I  c #DA7A01",
"U  c #D87807",
"Y  c #DD6D13",
"T  c #DD6D1D",
"R  c #D56C19",
"E  c #CE7E1C",
"W  c #C67719",
"Q  c #DA721E",
"!  c #DA7817",
"~  c #C76A0B",
"^  c #E16C04",
"/  c #EA6D01",
"(  c #ED660C",
")  c #E56A0C",
"_  c #ED6C0D",
"`  c #E66405",
"'  c #F46406",
"]  c #FD6701",
"[  c #F56B05",
"{  c #FC6A06",
"}  c #F4640B",
"|  c #F36C0C",
" . c #FB6B0A",
".. c #EA7503",
"X. c #E3730B",
"o. c #EA710C",
"O. c #E57A0D",
"+. c #E87805",
"@. c #F3730B",
"#. c #FA700D",
"$. c #F37103",
"%. c #E46614",
"&. c #E46F17",
"*. c #EC6914",
"=. c #E56B1B",
"-. c #EB6D19",
";. c #E76514",
":. c #F56610",
">. c #FA6712",
",. c #F36C13",
"<. c #FC6D15",
"1. c #F36E19",
"2. c #E57711",
"3. c #E3711B",
"4. c #EB741D",
"5. c #E97916",
"6. c #F3711B",
"7. c #FF7C1A",
"8. c #F67414",
"9. c #C76C2A",
"0. c #D26D23",
"q. c #D46D29",
"w. c #DC6F2A",
"e. c #DD6E26",
"r. c #C47D24",
"t. c #CA7727",
"y. c #DA7422",
"u. c #D2722C",
"i. c #DC732B",
"p. c #D67A28",
"a. c #C76A37",
"s. c #D46E35",
"d. c #D96E33",
"f. c #D16438",
"g. c #C47D32",
"h. c #C6723C",
"j. c #CB733A",
"k. c #CC7A3A",
"l. c #C87734",
"z. c #DB7434",
"x. c #D57C34",
"c. c #D3753A",
"v. c #D9743C",
"b. c #D37B3D",
"n. c #DC7B3E",
"m. c #DB7934",
"M. c #E26D24",
"N. c #EC6F26",
"B. c #E56C26",
"V. c #E37222",
"C. c #EB7623",
"Z. c #E4722B",
"A. c #E57D20",
"S. c #F47223",
"D. c #F07629",
"F. c #E07531",
"G. c #BA6E44",
"H. c #BA7449",
"J. c #CA6E47",
"K. c #CB7144",
"L. c #C57944",
"P. c #D57343",
"I. c #D67947",
"U. c #D77350",
"Y. c #D68301",
"T. c #DB8703",
"R. c #D4851B",
"E. c #DF8612",
"W. c #DF9B16",
"Q. c #E7880B",
"!. c #E78416",
"~. c #F48B16",
"^. c #F5891C",
"/. c #E99115",
"(. c #F99617",
"). c #D68825",
"_. c #D18B33",
"`. c #C88536",
"'. c #EA8221",
"]. c #F28124",
"[. c #F0802A",
"{. c #F69A24",
"}. c #FB9933",
"|. c #FDA42A",
" X c #FDAD2C",
".X c #F7A726",
"XX c #FFB62E",
"oX c #EFA637",
"OX c #FFAB32",
"+X c #FFB334",
"@X c #FEBC34",
"#X c #FFB63A",
"$X c #FFBC3B",
"%X c #F5BA38",
"&X c #FECB2D",
"*X c #FFC426",
"=X c #FDD02F",
"-X c #FFC335",
";X c #FDCC33",
":X c #FFC53A",
">X c #FECB3B",
",X c #F6C734",
"<X c #F5D032",
"1X c #FFD13C",
"2X c #C98345",
"3X c #D88544",
"4X c #CF8256",
"5X c #D7AE56",
"6X c #FBA742",
"7X c #FFB542",
"8X c #FFBD43",
"9X c #FFBB4C",
"0X c #FFB049",
"qX c #FFAC54",
"wX c #FFB452",
"eX c #FFB759",
"rX c #EEB765",
"tX c #FFB561",
"yX c #FFC345",
"uX c #FFCA41",
"iX c #FFCB49",
"pX c #FFC14F",
"aX c #FFD040",
"sX c #FEC455",
"dX c #F9C857",
"fX c #FAC674",
/* pixels */
"                                                                            J.P.6               ",
"                                                                          9 J.P.M @             ",
"                                                                          & h.z.K.4 t           ",
"                                                                          o c.w.v.p r           ",
"                                                                          X x.V.Z.h.w           ",
"                                                                          2 i.3.T 3X#           ",
"                                                                          v e.&.[.k.%           ",
"                                                                        6 P.Z.3.qXk.=           ",
"                                                                      5 n z.Q A.eX2X$           ",
"                                                                      p n.R ! wXtXB u           ",
"                                                                    q j.~ U $XpXfX1 $           ",
"                                                                e 6 A p.E. X-XsXfXo             ",
"                                                              e , K.m.!. X-XiXdXC               ",
"                                                            9 k a.i.].9X7XyXdX5XO               ",
"                                                          ; j F.N.S.) K E _.rXN                 ",
"                                                      # k a.Z.*.( 8._ 3.x.J V                   ",
"                                                    8 b v.M.-.,.| | Y z.L.x                     ",
"                                                > b k.z.N.S.6.;.-.M.n.M                         ",
"                                            q f b.q.y.C.;.*.4.i.j.H                             ",
"                                      + 1 l 3Xt.Q Q Q =.M.Z.u.h.                                ",
"                                  : q Z `.r.W 6XqX0.z.a.f.U.H.                                  ",
"                            @ 8 s 2Xg.r.).9X9XeXt.k.2 . 7                                       ",
"                          > 4XI.z.y.).sXyXyX9XW L.;                                             ",
"                        - I.q.T =.].0X7XiX$X0Xt.H.9                                             ",
"                      3 m Z.%.,.) 6XX.!.$X$X! x.1                                               ",
"                      i z.%.|  .}.^ o.+.Q.+XY u.8                                               ",
"                    3 G M.6.| 7.| @.| / (.OXK z.:                                               ",
"                  t z P.=.| | 8.` 7.' [ ~.^.-.d.3                                               ",
"                  r G.d.,.' ,.*.<.} } <.5.!.3.c.9                                               ",
"                  @ G Z.} #.*.1.:.>.>.,.^.^.3.c.3                                               ",
"                  w a.=.{ ] ( *.>.<.,.o.~.!.5.0.i                                               ",
"                  y a.=.{ ] ,.1.:.:.) O.+X|.X.Z.F 5                                             ",
"                  9 9.&._ #.,.*.1.) 2.!.$X#XK M.P.4                                             ",
"                  + s.4._ | ( 1._ 5.K |.$X+XO.3.s.i                                             ",
"                  + v.*.:. .<.} | / Q.-X-X-XI 2.i.d *                                           ",
"                  9 s.S.>.' { [ $...+X>X;X>XT.P Q k.:                                           ",
"                  * c.;.<.{ [ / ^ (.-X-X>XaX@XP Y m.s o                                         ",
"                  % b.C._ @.` +.|.:X-X>X>X:X@XI 2.R j.s                                         ",
"                  % g.wXP P P @X@X-X@X>X>X>X-XOXO.Y i.j.<                                       ",
"                  = g.}./.Y.:X-X-X>X>X-X>X>X:X$XI X.Y i.P.a 7 4 4                               ",
"                  & S 7X$X@XuX:X>X;X;X;X;X;X;X;X-XI {.'.y.q.d.f.P.D *                           ",
"                  * g.L #X:X:XuX>X;X;X;X&X&X&X;X-XXX+X7X! A.%.N.B.s.c                           ",
"                    A p.9X8XuXuX>X;X;X;X=X;X;X;X-X:X:X@X XP _ | } D.h.k                         ",
"                    G.9.W R.8X%X>X>X;X;X;X;X;X;X>X:X-X-X:XY...[ { ,.i.G.@                       ",
"                    4 d l.r.oXuXuX>X;X;X;X;X>X>X>X:X;X1X,XW.^ #.[ ( V.c.k                       ",
"                      8 - S R.$XuX>X;X;X;X;X>X>X:X-X1X;X,X.XX.( | ,.-.w.G                       ",
"                        0 h E .X:X;X&X&X&X;X<X;X;X;X&X&X;XyXX.,.*.6.*.=.s.,                     ",
"                        % g E {.-X&X&X&X&X&X<X<X;X&X&X*X1X$X^ 1.6.%.,.-.z.-                     "
};
