/* XPM */
static char *_e4c602c2a124134b9e4f6263a200168[] = {
/* columns rows colors chars-per-pixel */
"48 48 225 2 ",
"   c None",
".  c #5F3908",
"X  c #5D2718",
"o  c #5F341E",
"O  c #682F06",
"+  c #743304",
"@  c #7A3300",
"#  c #792F16",
"$  c #62341A",
"%  c #7C3312",
"&  c #702911",
"*  c #5C2D27",
"=  c #593422",
"-  c #63342C",
";  c #64422E",
":  c #714A35",
">  c #873916",
",  c #843D0A",
"<  c #8D3E20",
"1  c #844600",
"2  c #9B5E03",
"3  c #8E471F",
"4  c #944A19",
"5  c #9B4A1F",
"6  c #A05D0C",
"7  c #B55D06",
"8  c #876800",
"9  c #8F7604",
"0  c #987707",
"q  c #A66516",
"w  c #B3601B",
"e  c #8D4625",
"r  c #994F26",
"t  c #9B5B2F",
"y  c #AD5A2B",
"u  c #A85933",
"i  c #9E6530",
"p  c #B46429",
"a  c #BA7825",
"s  c #BD603E",
"d  c #AE7A3E",
"f  c #BA773B",
"g  c #F85E0B",
"h  c #C2670E",
"j  c #D56E04",
"k  c #DE6D02",
"l  c #D86E08",
"z  c #D57200",
"x  c #DD7504",
"c  c #D5720C",
"v  c #DB770C",
"b  c #D97903",
"n  c #C46C12",
"m  c #CD7716",
"M  c #C87815",
"N  c #D67812",
"B  c #DC7B12",
"V  c #DC741C",
"C  c #D57C1C",
"Z  c #DA711A",
"A  c #DA6C15",
"S  c #EE6306",
"D  c #E56A02",
"F  c #EB6B04",
"G  c #E5670B",
"H  c #ED660B",
"J  c #E66E0C",
"K  c #EB6C0B",
"L  c #E56703",
"P  c #F46606",
"I  c #F36B04",
"U  c #F3650C",
"Y  c #F46C0D",
"T  c #F96C0C",
"R  c #E47303",
"E  c #ED7302",
"W  c #E4730D",
"Q  c #EC720B",
"!  c #E47B0B",
"~  c #E87D0B",
"^  c #F3720C",
"/  c #EE6610",
"(  c #E16C13",
")  c #EC6C14",
"_  c #E3661C",
"`  c #E9661C",
"'  c #E56C1D",
"]  c #ED6C1A",
"[  c #F36511",
"{  c #FE6613",
"}  c #F46B13",
"|  c #FB6B13",
" . c #F36F1A",
".. c #FF6C1A",
"X. c #F3671A",
"o. c #E47312",
"O. c #EB7412",
"+. c #E6711A",
"@. c #EA7A1C",
"#. c #E87917",
"$. c #F17113",
"%. c #FB7013",
"&. c #F47319",
"*. c #F5791B",
"=. c #C76B26",
"-. c #DD6F29",
";. c #D76B28",
":. c #C77B27",
">. c #D9742A",
",. c #D87527",
"<. c #CC6B32",
"1. c #C86734",
"2. c #D36D3B",
"3. c #DB6B36",
"4. c #C9733B",
"5. c #D07236",
"6. c #D87339",
"7. c #E36C23",
"8. c #E06D2A",
"9. c #ED6B24",
"0. c #F36E23",
"q. c #E27026",
"w. c #E97626",
"e. c #F57626",
"r. c #E6773B",
"t. c #8D6A52",
"y. c #896246",
"u. c #AE6D4D",
"i. c #B4704C",
"p. c #C67544",
"a. c #D07548",
"s. c #C07852",
"d. c #E87640",
"f. c #A8800B",
"g. c #B68306",
"h. c #D5810F",
"j. c #CA8018",
"k. c #D68917",
"l. c #E78007",
"z. c #E48C15",
"x. c #EE8E14",
"c. c #EA8517",
"v. c #F48A19",
"b. c #F79212",
"n. c #F19D1B",
"m. c #F8971C",
"M. c #E99B14",
"N. c #CA8224",
"B. c #D28826",
"V. c #C38039",
"C. c #D98738",
"Z. c #D79838",
"A. c #DA9724",
"S. c #EE8B28",
"D. c #E8852A",
"F. c #F48C26",
"G. c #F58728",
"H. c #ED9226",
"J. c #E7962A",
"K. c #FD9523",
"L. c #FF9A25",
"P. c #F5992B",
"I. c #FD9D2E",
"U. c #F8962D",
"Y. c #E38633",
"T. c #F28A3D",
"R. c #FF9535",
"E. c #FF9C34",
"W. c #FB953A",
"Q. c #FE9C3C",
"!. c #F79B34",
"~. c #DCA12B",
"^. c #EBA026",
"/. c #F6A32C",
"(. c #FFA32E",
"). c #FDAB2D",
"_. c #FBA424",
"`. c #FFB22C",
"'. c #FFB829",
"]. c #E8A636",
"[. c #FEA430",
"{. c #FFAD31",
"}. c #FFA33B",
"|. c #FFA83C",
" X c #FFB433",
".X c #FFBA35",
"XX c #FFB13A",
"oX c #FFBC3C",
"OX c #FDC42A",
"+X c #FDCD2D",
"@X c #F4CC2E",
"#X c #FEC434",
"$X c #F5CD32",
"%X c #FDCC33",
"&X c #FFC33B",
"*X c #F6CC39",
"=X c #FECC3B",
"-X c #F5C638",
";X c #FCD234",
":X c #FED03B",
">X c #D99742",
",X c #D9805E",
"<X c #E99345",
"1X c #FF9F46",
"2X c #F6AB44",
"3X c #FDAC44",
"4X c #FFA44F",
"5X c #FFAA4A",
"6X c #FFA545",
"7X c #FFB642",
"8X c #FFBD43",
"9X c #FFB34B",
"0X c #FDBD4C",
"qX c #F8AB50",
"wX c #FFBA52",
"eX c #FFB651",
"rX c #F99A6C",
"tX c #FFB271",
"yX c #FEC541",
"uX c #FECA44",
"iX c #FFC54B",
"pX c #FFCA4A",
"aX c #FFD441",
"sX c #FDC353",
"dX c #FFC65C",
/* pixels */
"                                                                                j.2             ",
"                                                                                2Xq             ",
"                                                                              5XC.6             ",
"                                                                              Q.,.a             ",
"                                                                            S.j m Z.8           ",
"                                                                            E.#.eXdX9           ",
"                                                                        h E.#.l wXsX0           ",
"                                                                        W.#.j 9XwXsXf.          ",
"                                                                    -.R.( #.h.8X0X].g.          ",
"                                                                  4XG.Q O.j iX8X8XA.            ",
"                                                            Y.W.G.) D Q E.K./.8X8X^.            ",
"                                                        Q.3XF.o.K Q Q R k x b M.'.M.            ",
"                                                    |.U.R.@.W k Q D R ~ K.(.'.OX                ",
"                                                }.[.K.I.Q.W.W.R.m.L.[.|.U.                      ",
"                                          <XT.w.G.F.5X          XX                              ",
"                                      2X!.c @.e.A 1X                                            ",
"                            >X>XZ.].~.~.].H.5XW.D.w                                             ",
"                      tX4XD.B c.3X7X8XyX8X8XF.V <Xf                                             ",
"                    rX;.e.&.G K J v.7X8X8X(.o.V <X                                              ",
"                  ,Xd._ X.S | | U O.P.oXXXx o.V a                                               ",
"                i.1.7.e.[ | { g { H j 7Xm.k ) -.q                                               ",
"              t.u <._ / Y U g ....} x 7XR Q ) q.p                                               ",
"              ; , >.w.$.^ Y %.U [ H x I.R $. .-.y                                               ",
"              = @ ,.( K F ^ H | H *.! (.Q K ] 8.y                                               ",
"              * 4 -.] / F K Y } ) O.c.(.Q Y ] 8.5                                               ",
"              * p.r.` } ^ F S } } J L.L.Q } ] 8.>                                               ",
"              * u 3.` } T T Y | U ^ x.(.F [ &.-.@                                               ",
"              - > 3.0.[ P T | U T ^ x.{.K U  .q.4 $                                             ",
"              : > 2.9.} P T } U T D .X_.O.[ / q.p.$                                             ",
"              y.e 2.' Y T T } } L x.yX).W } [ 7.p.&                                             ",
"                r 6.w.Y P P K J ! {..XoXW ) } ' <.< X                                           ",
"                t 5.A K Y K W ! ).&X#X&Xc.K H ] r.s &                                           ",
"                i :.6X#.o.o.m.`.#X=X=X#X).R ^ / w.2.#                                           ",
"                d a 3XP.c I. X=X%X$X*XaX X~ R Q +.>.r $                                         ",
"                  Z.B.9X8X.X=X#XaX%X$X=X&X{.x.z x C C.+ o                                       ",
"                    N.9Xz _. X&X#X%X:X*X&XpX.Xn. Xz.M V.O $                                     ",
"                    :.S.o.W z XX#X%XaX*XyXyX&X%XOX#X8XB.V.+ % & s.u.X                           ",
"                    qXB @.G O.~ &X%X*X*XaX=X#X#X+X%X&XsXZ.:.5.5.<.4.e                           ",
"                      B ( ) *.R n.#X%X$X*X=X=X=X%XOX=XuX0XJ.V +.w.>.a.3                         ",
"                      dXS.@.( o.z.&X%X;X@X%X%X%X%X%X:X-XiX0Xx F L +.6.p                         ",
"                            7 ,.N oX#X;X+X+X%X%X%X=X*XuXuX&Xb.E F &._ Z                         ",
"                            N.:.N XX#X;X+X+X%X%X%X%X*X=X&X&Xm.R I P ) o.[.                      ",
"                              k.c I.oX%X+X+X%X%X;X%X%X=XuXyX Xx ^ T T K K.                      ",
"                              ).v H.oX#X%X%X;X%X+X+X%X%X&XyXoXb L %.T F R                       ",
"                              `.B H.yX%X%X%X%X%X+X+X+X%X&XyX8Xv K S T K o.n                     ",
"                              XXB H.&X%X%X%X%X%X%X%X+X%X=XyXXX! Q %.U } ' Y.                    ",
"                              :.m H.&X%X%X%X=X=X%X%X+X%X=X&Xm.R F Y [ 0.7.=.                    ",
"                            . 1 C /.=X;X%X%X=X&X=X:X$X;X=X&Xb.E E Y X.9.7.=.O                   "
};
