/* XPM */
static char *_bd1880e8583494ebccf132271953aeb[] = {
/* columns rows colors chars-per-pixel */
"48 48 204 2 ",
"   c None",
".  c #6B270B",
"X  c #6A2C0B",
"o  c #652809",
"O  c #782C0C",
"+  c #66300D",
"@  c #642B13",
"#  c #6C2E11",
"$  c #602F18",
"%  c #682F19",
"&  c #702A10",
"*  c #69351A",
"=  c #783412",
"-  c #6A3422",
";  c #803C17",
":  c #AC4F1E",
">  c #B75E1C",
",  c #BD6A1E",
"<  c #BC7018",
"1  c #AA5228",
"2  c #B4742A",
"3  c #AA6A3E",
"4  c #BD6C3D",
"5  c #B86437",
"6  c #BD7739",
"7  c #FE5F0E",
"8  c #DE6700",
"9  c #DB6D08",
"0  c #D27302",
"q  c #DD7103",
"w  c #DB730D",
"e  c #DF671A",
"r  c #DB6D1D",
"t  c #CD7917",
"y  c #D57615",
"u  c #DF7310",
"i  c #DC731E",
"p  c #DA7A14",
"a  c #EB6305",
"s  c #EC6C04",
"d  c #E0670A",
"f  c #ED640A",
"g  c #E46D0B",
"h  c #EE6A0C",
"j  c #F36504",
"k  c #F96503",
"l  c #F36C05",
"z  c #FA6A05",
"x  c #F4650C",
"c  c #FB650D",
"v  c #F46B0B",
"b  c #FB6A0C",
"n  c #E47403",
"m  c #EC7202",
"M  c #E17800",
"N  c #EF7804",
"B  c #E5750B",
"V  c #ED730C",
"C  c #E17B0B",
"Z  c #EA7C0A",
"A  c #F4720C",
"S  c #FE700E",
"D  c #F1780F",
"F  c #F47204",
"G  c #EE6513",
"H  c #E66C15",
"J  c #ED6B13",
"K  c #EF6318",
"L  c #E46C1C",
"P  c #EB6E1A",
"I  c #E46713",
"U  c #F46611",
"Y  c #FD6613",
"T  c #F46B13",
"R  c #FA6B12",
"E  c #F36E1B",
"W  c #F96D1B",
"Q  c #E77312",
"!  c #EB7314",
"~  c #E1731B",
"^  c #EA721D",
"/  c #E0781F",
"(  c #E57916",
")  c #F17415",
"_  c #F87910",
"`  c #F2731D",
"'  c #F87115",
"]  c #C05F2A",
"[  c #C4672A",
"{  c #DB6C24",
"}  c #DC6D2D",
"|  c #D86726",
" . c #C77726",
".. c #CF7127",
"X. c #C6782D",
"o. c #DE7D24",
"O. c #DB722C",
"+. c #D07B28",
"@. c #D47420",
"#. c #C46636",
"$. c #C26E3A",
"%. c #CC6D39",
"&. c #CB6D37",
"*. c #D36D34",
"=. c #D96D37",
"-. c #CD7537",
";. c #C2753D",
":. c #C8733B",
">. c #CC783A",
",. c #D57233",
"<. c #DD7232",
"1. c #D4743C",
"2. c #D8783E",
"3. c #D2783C",
"4. c #E36623",
"5. c #E36B23",
"6. c #EA6B22",
"7. c #E46D2C",
"8. c #F36F24",
"9. c #FF6D20",
"0. c #EC7325",
"q. c #E2732C",
"w. c #EA732C",
"e. c #F17128",
"r. c #FB7722",
"t. c #E07330",
"y. c #E6753B",
"u. c #AA774F",
"i. c #BE7446",
"p. c #B9774E",
"a. c #B47B50",
"s. c #BF7E62",
"d. c #CD7244",
"f. c #C67B4E",
"g. c #CC7943",
"h. c #D47744",
"j. c #D77840",
"k. c #DA7C4C",
"l. c #D87645",
"z. c #C57C59",
"x. c #D78611",
"c. c #D7811A",
"v. c #DF8412",
"b. c #EB820A",
"n. c #E48609",
"m. c #F6810F",
"M. c #F18B0F",
"N. c #F6910F",
"B. c #EF8014",
"V. c #EC8A13",
"C. c #EE871E",
"Z. c #E78B1A",
"A. c #F88616",
"S. c #F99E1C",
"D. c #D4802A",
"F. c #EB882A",
"G. c #EF9120",
"H. c #E49723",
"J. c #FB9D2C",
"K. c #F99C23",
"L. c #E8923B",
"P. c #FF9930",
"I. c #FDA42D",
"U. c #F7A527",
"Y. c #FFB42D",
"T. c #FEAC33",
"R. c #FFA33F",
"E. c #FFAA3F",
"W. c #FFA534",
"Q. c #FFB237",
"!. c #FFBB36",
"~. c #FFB43C",
"^. c #FFBB3C",
"/. c #F5CA2E",
"(. c #FEC434",
"). c #F4C933",
"_. c #FDCB34",
"`. c #FFC33B",
"'. c #F7CE3A",
"]. c #FECC3B",
"[. c #F1C530",
"{. c #FFD33C",
"}. c #FCD033",
"|. c #BB845C",
" X c #E38F4D",
".X c #E59F47",
"XX c #FBAA44",
"oX c #FFB341",
"OX c #FFBB43",
"+X c #FFBA4A",
"@X c #FDBA54",
"#X c #FFAF63",
"$X c #E9B268",
"%X c #FFB867",
"&X c #F5AD78",
"*X c #FFB57B",
"=X c #FFC443",
"-X c #FFC34C",
";X c #FDCC41",
":X c #FFD541",
">X c #FFC450",
",X c #F6C058",
"<X c #FFC35F",
"1X c #F7C567",
/* pixels */
"                                                                                                ",
"                                                                                                ",
"                                                                                                ",
"                                                                                                ",
"                                                                                                ",
"                                                                                                ",
"                                                                                                ",
"              s.z.; = # @ -                                                                     ",
"              h.*.<.} <.1.1 O . X X # @ -                                                       ",
"            5 | 0.E G J 0.q.*.k.g.$.$.$.4 f.3 a.u.                                              ",
"            k.{ J v j j v G 4.7.| q.w.e 5.| *Xi.|.                                              ",
"            &.0.J v b z b R W 8.P ` f v W 0.*.f.                                                ",
"            [ q.P J T v f x T G E U b z c 6.l..                           z.;.&X                ",
"             Xr H J J T v b R U U x k z U 7.1                               p.                  ",
"            #X~ ` E T v j z z b R b k v P *..                                                   ",
"            %XF.g h U b b z k b v x S ' e %.%                                                   ",
"            $X@Xw V v k b b x R b x x ` { #.*                                                   ",
"              <X+Xq m l j c W R v v f ` w.#.@                                                   ",
"              ,XOXOXC B.V a v b F m N A.e ] %                                                   ",
"              1X-X^.oXC.( V l l n M N.I.0.*.#                                                   ",
"                XX0 ( ~ 9 R._ m.b.Y.!.T.~ *.o                                                   ",
"                t u H H ^ d V m.~.^.!.T./ ,.=                                                   ",
"                  ! U 9.W E A s q J.-XOXy O.i.$                                                 ",
"                  P Y 7 Y f R v V q Z.+XR.@.:.X                                                 ",
"                    x c Y x R U R v n n.oXp ..4                                                 ",
"                    T R U G e.6.K W V Z V.W.i -.X                                               ",
"                      I 5.t.1.j.y.5.J s Z A.y +.6                                               ",
"                                  %.5.` 8 B XXXX.X2                                             ",
"                                    : q.^ g C oX-X@X< , > [ q.| 2.                              ",
"                                      d.7.P B I.`.=X>Xc.o.~ P E L <.                            ",
"                                        =.8.v M `.'.=X=Xx.w ) U x E O.                          ",
"                                          4.v n `.'.{.(.=XV.g v b x I ,.                        ",
"                                          =.P n !.].).:X`.!.Z A b b U L -.                      ",
"                                            L B !._.).].(.`.^.q s x j r.O.                      ",
"                                            r B U.]._._.{.(.`.K.D v b T { :.                    ",
"                                            { Q U.(._._._.].`.Q.q s b a 0.,.                    ",
"                                            O.Q U.(.(._._.{.].=XZ.) v b P }                     ",
"                                            q.Q T.].(._.{.[.`.OXJ.g j b x 5.d.                  ",
"                                            7.H OX]._._./.].^.v.P.g b j R L h.                  ",
"                                            7.H ^.]._.}._.`.0 B ! ! v k v P 2.X                 ",
"                                            5.! =X'._._.].n.V v T h b z v L 3.X                 ",
"                                            q.w `.'._._.Y.b.v c U x b b v L >.X                 ",
"                                            o.G.`.'.].(.S.n z c Y c c b v ~ >.+                 ",
"                                            y ^.(._.].`.M.m z c Y c c R T i :.+                 ",
"                                          X.t ^.(._.`.`.b.l b c b b c U T 5.:.#                 ",
"                                           .H.!._._.`.`.Z l v x b b x U E 5.&.#                 ",
"                                          D.~.].]._.].^.Z s v v l v v U W 5.%.#                 ",
"                                        ;.L.=X(._._.;X`.Z s v A l l v U W 5.%.&                 "
};
