/* XPM */
static char *f194afdeecd74f019713884b08ca5ca3[] = {
/* columns rows colors chars-per-pixel */
"48 48 200 2 ",
"   c None",
".  c #552A09",
"X  c #53351C",
"o  c #5B341A",
"O  c #5F3316",
"+  c #672A03",
"@  c #772C09",
"#  c #66350D",
"$  c #723E0F",
"%  c #6C2C14",
"&  c #6A2C1B",
"*  c #6C3113",
"=  c #793417",
"-  c #432E21",
";  c #4C3B29",
":  c #553B2E",
">  c #523128",
",  c #7E3927",
"<  c #734A14",
"1  c #7E581A",
"2  c #724727",
"3  c #6C5126",
"4  c #563B40",
"5  c #853B0A",
"6  c #853B19",
"7  c #833B17",
"8  c #8F4103",
"9  c #804012",
"0  c #975C1A",
"q  c #874522",
"w  c #954B2B",
"e  c #954726",
"r  c #A24E24",
"t  c #A05B24",
"y  c #B35D2F",
"u  c #AE5F3F",
"i  c #A4593C",
"p  c #B45D32",
"a  c #916D31",
"s  c #B76627",
"d  c #BC6432",
"f  c #AA7030",
"g  c #BE713D",
"h  c #F35F07",
"j  c #D86F00",
"k  c #DE6C0B",
"l  c #DC7404",
"z  c #DD750A",
"x  c #DF7A08",
"c  c #DB7607",
"v  c #DB6C1A",
"b  c #DE7312",
"n  c #DE7E10",
"m  c #DA751B",
"M  c #D07B11",
"N  c #EC6402",
"B  c #E36C04",
"V  c #EB6C05",
"C  c #EA660D",
"Z  c #EC6A0D",
"A  c #E56609",
"S  c #F36505",
"D  c #FB6604",
"F  c #F46905",
"G  c #F96A06",
"H  c #F5660C",
"J  c #FA660C",
"K  c #F46A0B",
"L  c #FC6C0C",
"P  c #EC7504",
"I  c #E3730E",
"U  c #EE720A",
"Y  c #E37B0B",
"T  c #E87C09",
"R  c #F17204",
"E  c #F07108",
"W  c #FB720D",
"Q  c #E36615",
"!  c #ED6713",
"~  c #E56A14",
"^  c #EB6D13",
"/  c #EC661C",
"(  c #E56C1C",
")  c #EB6D1A",
"_  c #F56512",
"`  c #FC6511",
"'  c #F46C13",
"]  c #FB6B13",
"[  c #F76A18",
"{  c #FE6B1B",
"}  c #E57312",
"|  c #EE7414",
" . c #E2751C",
".. c #EC711C",
"X. c #E27B1B",
"o. c #F57214",
"O. c #FB7315",
"+. c #F17A13",
"@. c #F5751B",
"#. c #FA751A",
"$. c #F17B19",
"%. c #DD6C23",
"&. c #D26C2D",
"*. c #DA6C2C",
"=. c #D56526",
"-. c #CA702F",
";. c #DD722D",
":. c #D87428",
">. c #C56B35",
",. c #C46E3C",
"<. c #CE6E39",
"1. c #D76E37",
"2. c #DD6F30",
"3. c #D56D3A",
"4. c #DE6C38",
"5. c #C1703A",
"6. c #CD733E",
"7. c #CA7834",
"8. c #D27335",
"9. c #DC7535",
"0. c #D3733A",
"q. c #D8723D",
"w. c #DC783C",
"e. c #D87A32",
"r. c #E66720",
"t. c #E46D23",
"y. c #EB6D24",
"u. c #E57224",
"i. c #ED7423",
"p. c #E3732B",
"a. c #E87729",
"s. c #E96C33",
"d. c #E57432",
"f. c #A46143",
"g. c #BB7048",
"h. c #B06E52",
"j. c #B97A61",
"k. c #C36D47",
"l. c #DB6F49",
"z. c #CD7945",
"x. c #C47149",
"c. c #CA744B",
"v. c #CF7447",
"b. c #D27344",
"n. c #D17A44",
"m. c #D4784B",
"M. c #D5744A",
"N. c #C57552",
"B. c #CA7853",
"V. c #D57251",
"C. c #E27C45",
"Z. c #DD8406",
"A. c #E5850A",
"S. c #E38413",
"D. c #E98715",
"F. c #F4861B",
"G. c #EB941A",
"H. c #EAAD1E",
"J. c #FF972E",
"K. c #F9992C",
"L. c #F69924",
"P. c #FF9B3D",
"I. c #D5A13E",
"U. c #FFAD2F",
"Y. c #FFBE2E",
"T. c #FDA332",
"R. c #FFAA33",
"E. c #FFAC3C",
"W. c #FEB433",
"Q. c #FFB53C",
"!. c #FFBC3B",
"~. c #FCC62E",
"^. c #FDC635",
"/. c #F7CA33",
"(. c #FFCA35",
"). c #FEC33B",
"_. c #FDCB3C",
"`. c #FFD23F",
"'. c #FFD237",
"]. c #B98847",
"[. c #DD8043",
"{. c #CD9540",
"}. c #CD9558",
"|. c #CDA15A",
" X c #EBA043",
".X c #FFA843",
"XX c #FEBB43",
"oX c #FFB148",
"OX c #FDBC4C",
"+X c #FFB644",
"@X c #FDBB53",
"#X c #C99565",
"$X c #FFC443",
"%X c #FFCC43",
"&X c #FFC54E",
"*X c #FFCB4C",
"=X c #FFCB58",
"-X c #FBC558",
";X c #FCC76A",
":X c #FFD165",
/* pixels */
"                                                                                                ",
"                                                                                                ",
"        ; X . * = ,                                                                             ",
"    4 : 3 a f 8 <.M.w &                                                                         ",
"    > 2 |.;X-X@X .%.q.c.9 + % %                                                                 ",
"  - o #X;X&X!.!.Y } %.9.8.<.v.B.N.j.                                                            ",
"  : O }.@X).(.(.l U ^ ~ (  .d.3.c.h.                                                            ",
"    . ].=X_.(.Y.l E K K W C y.3.@                                                               ",
"    o ].-X_.^.!.I K J J F @.=.r                                                                 ",
"    X 1 :X*X%X&XI ' ` J K ( b.                                                                  ",
"    X < I.XX*XE.X.^ ' H @.p.6                                                                   ",
"    : # {.OX&XOXK.I ^ ' ~ 9.                                                                    ",
"      o 0  XM L.+Xc U Z ..8.                                                                    ",
"      > $ 7.m z E.c U #.~ 8.                                                                    ",
"          t %.^ B J.N ' ( 8.                                                                    ",
"            q.y.^ O.O.! a.z.                                                                    ",
"            6 q.t.! ' ( &.B.                                                                    ",
"              w <.*.d.&.p                                                                       ",
"                                                                                                ",
"                                                                                                ",
"                                                                                                ",
"                                                                                                ",
"                                            N.m.    >.[.-.8.C.p                                 ",
"                                            m.*.d.%.a.v X.m v p.q.x.                            ",
"                                            n.;.t...| I c n c  .u.*.b.                          ",
"                                            5 *.Q #.N U E.R.+XT.k ..s.l.                        ",
"                                              C.y._ J ] l Q.!.!.+XI / s.V.                      ",
"                                              0.r.{ ` H I R.).$X!.K.Z / 4.u                     ",
"                                              >.y.[ H O.z T.W.).!.S.U ' t.5.                    ",
"                                            # n.t.! _ ' b T.$XU.R.Y V F ( 8.                    ",
"                                            + 0.t.@.' C k oXP P U A L G @.8.q                   ",
"                                            5 &...Z ' o.I +.W F O.S D L C ;.g.                  ",
"                                            s :.| N ] { S F K K K K ] _ ' %.g                   ",
"                                            e.b B K ] h L W S O.K K ] _ ' t.5.                  ",
"                                          y ;.A Z O.' H N L K N K K ] _ ' ( 5.                  ",
"                                        7 w.Q #.A ' ^ P.O.N F W K K ] H ' ( ,.                  ",
"                                        b.p.! H o.^ k $.| K G G K K ] H ' ( ,.                  ",
"                                      w 9.Q O.H A } .XF.^ o.G S K K J H ' ( ,.                  ",
"                                      m.t.' K V | z E.F.U Z K L K K L G ' t.,.                  ",
"                                    e 1.i.N V T c E.Q.D.V K K K ] K L F ' t.k.                  ",
"                                    b.%.~ +.j L.Q.Q.XXx U N ' ' H H G K ~ 2.k.                  ",
"                                  e *.i.k l +X)._.).W.l R F ' ' { G L o.t.3.i                   ",
"                                  >.y.| } G.$X^.^.^.W.Y R S ' _ H J H ~ 9.x.                    ",
"                                  w.) A S.XX).`./.(.).A.R K ' ' J ] ' u.d f.                    ",
"                                y %.C V D.!.%X_.'.(.).Z.B L ] H J S ) ;.@                       ",
"                                6.u.#.U W.)._./.(.~._.G.B K J D L H ) w.                        ",
"                                0.( K B ).(.^._.(.(.^.!.} K L L D K ( 6.                        ",
"                                0...Z F.^.~.`.^.(.^.H.!.} C L D L C u.z.                        "
};
