/* XPM */
static char *_586fe39613f4180b0b9303a01b1b406[] = {
/* columns rows colors chars-per-pixel */
"48 48 208 2 ",
"   c None",
".  c #592E1A",
"X  c #5E3018",
"o  c #602600",
"O  c #6A280A",
"+  c #752700",
"@  c #7F2D02",
"#  c #68300D",
"$  c #672A1B",
"%  c #69381A",
"&  c #6A3517",
"*  c #552D21",
"=  c #5C3423",
"-  c #513A36",
";  c #683323",
":  c #7E4D24",
">  c #8C3B15",
",  c #833A11",
"<  c #8F430F",
"1  c #90401A",
"2  c #814B26",
"3  c #8B4727",
"4  c #8A5327",
"5  c #90572D",
"6  c #995629",
"7  c #A65727",
"8  c #A0502F",
"9  c #AA562D",
"0  c #A35934",
"q  c #A85A36",
"w  c #B15F30",
"e  c #936035",
"r  c #BC602D",
"t  c #AE623E",
"y  c #AF6133",
"u  c #B66138",
"i  c #B76536",
"p  c #B87739",
"a  c #F25800",
"s  c #D56D01",
"d  c #DB6D00",
"f  c #C97706",
"g  c #DD7505",
"h  c #DC7A02",
"j  c #DC720A",
"k  c #D87507",
"l  c #DC6B19",
"z  c #CC761A",
"x  c #DB721C",
"c  c #DD7C1E",
"v  c #E46D02",
"b  c #EE6C02",
"n  c #ED6C0B",
"m  c #EB6609",
"M  c #F36505",
"N  c #FC6606",
"B  c #F26C05",
"V  c #FA6A06",
"C  c #F3650D",
"Z  c #FE650A",
"A  c #F36B0B",
"S  c #FA690C",
"D  c #E57102",
"F  c #EB7404",
"G  c #E6700D",
"H  c #E9730B",
"J  c #ED7C0D",
"K  c #E87A07",
"L  c #F1720D",
"P  c #F6780A",
"I  c #E56B13",
"U  c #ED6B13",
"Y  c #E7671E",
"T  c #E56B1A",
"R  c #EC6B1B",
"E  c #E36612",
"W  c #F46612",
"Q  c #FB6611",
"!  c #F56A12",
"~  c #FC6C13",
"^  c #F46B1A",
"/  c #FA6B1B",
"(  c #E67212",
")  c #EC7416",
"_  c #F27213",
"`  c #FF7812",
"'  c #F27119",
"]  c #F67514",
"[  c #CE6D2E",
"{  c #CE6925",
"}  c #DF6520",
"|  c #DD6D22",
" . c #D76529",
".. c #D56E2B",
"X. c #CB7929",
"o. c #DB732D",
"O. c #D37925",
"+. c #D76E37",
"@. c #D96E3A",
"#. c #C87D34",
"$. c #CC733C",
"%. c #C07A3C",
"&. c #CB7936",
"*. c #D37233",
"=. c #DD7534",
"-. c #DB733D",
";. c #D4783B",
":. c #E36D24",
">. c #EE6A20",
",. c #E66D2A",
"<. c #E26626",
"1. c #EA7325",
"2. c #E4752C",
"3. c #E37224",
"4. c #E27535",
"5. c #E67B33",
"6. c #B86E49",
"7. c #B56944",
"8. c #BE7641",
"9. c #BD7E53",
"0. c #CC6F43",
"q. c #CB7B41",
"w. c #CF7F4E",
"e. c #C77B41",
"r. c #D97642",
"t. c #C47C56",
"y. c #D9850F",
"u. c #D98201",
"i. c #E3850F",
"p. c #E08F0A",
"a. c #E28614",
"s. c #E58C14",
"d. c #EC8E1A",
"f. c #F38B19",
"g. c #E79518",
"h. c #E99716",
"j. c #DE8020",
"k. c #DE802F",
"l. c #DE9129",
"z. c #DB8C3F",
"x. c #EE8E20",
"c. c #E08D25",
"v. c #FF8F29",
"b. c #FB8E25",
"n. c #FE9F2A",
"m. c #F49528",
"M. c #E4813E",
"N. c #E5993B",
"B. c #EA9637",
"V. c #F79F35",
"C. c #EAA523",
"Z. c #F7AD26",
"A. c #FFA128",
"S. c #F0A32F",
"D. c #FFB42F",
"F. c #FABD2E",
"G. c #FFAF34",
"H. c #F7A539",
"J. c #FFAE3E",
"K. c #FFA634",
"L. c #FFB133",
"P. c #FFBA35",
"I. c #FFB63B",
"U. c #FEBD3A",
"Y. c #F2BE37",
"T. c #F6C72C",
"R. c #FCC52D",
"E. c #FDCA2D",
"W. c #FFC435",
"Q. c #F6CB32",
"!. c #FFCC34",
"~. c #FFC63B",
"^. c #F6CE39",
"/. c #FECB3C",
"(. c #FCD135",
"). c #F6D13A",
"_. c #FED33D",
"`. c #C88F40",
"'. c #CA8A4A",
"]. c #D88E43",
"[. c #CA964B",
"{. c #DA8254",
"}. c #EA9841",
"|. c #FFAD45",
" X c #FFB241",
".X c #FEBD42",
"XX c #FEBD4B",
"oX c #FFB44E",
"OX c #F7B653",
"+X c #FDBB55",
"@X c #FFB554",
"#X c #C08871",
"$X c #EBA063",
"%X c #EFB865",
"&X c #FFBF69",
"*X c #F7BC6D",
"=X c #FFB67E",
"-X c #FFBC78",
";X c #FFC542",
":X c #FFCA44",
">X c #FFC84E",
",X c #F7CA4C",
"<X c #FFD044",
"1X c #F7CF55",
"2X c #FBC655",
"3X c #EAC36B",
"4X c #F8C86B",
"5X c #E9C070",
/* pixels */
"        X # + > 8 &                                                                             ",
"  - . % : 4 < w.6.#X                                                                            ",
"  = e p [.`.].p 9..                                                                             ",
"  % '.&XOXOXX.#.o                                                                               ",
"  2 z.oX X Xj.&.#                                                                               ",
"  4 }.s K. Xl [ $                                                                               ",
"  2 O.( H ] U +.$                                                                               ",
"    *.T T R Y @.$                                                                               ",
"    q...4.4. .0.                                                                                ",
"    7.i @ u {.t.                                                                                ",
"                                                                                                ",
"                                                                                                ",
"                                                                                                ",
"                                                                  =X                            ",
"                                                                5.x B.                          ",
"                                                              M.T H j @X                        ",
"                                                            ;.3.) G g H.                        ",
"                                                          4 =.I U L K a.+X                      ",
"                                                          0 o.n C A v d.+X                      ",
"                                                          w l ! ~ M D i.2X%X                    ",
"                                                          $.T S a S F s..X4X                    ",
"                                                          -.R S ~ A s :X;X2X                    ",
"                                                        t +.R ~ A v i.P./.1X5X                  ",
"                                                        t -.R A L D m.;X/.,X3X                  ",
"                                                        1 =.T n G b.J.I.:X,X3X                  ",
"                                                        9 =.E v.v.) j i.h.XX4X                  ",
"                                                        r | _ ` A m _ ) g c.*X                  ",
"                                                      q ..T ~ M A A ! C G c -X                  ",
"                                                    3 $.| ' N Z N S ~ C U x $X                  ",
"                                                    r.| I A S N ~ M Q ~ R 2.                    ",
"                                                > r.:.' L M ~ C ! m ! ^ E ..                    ",
"                                              6 -.<.^ A b B C ~ m _ I 1.=.                      ",
"                                            7 *.,.>.^ ! A A N S A ' l ;.                        ",
"                                          8.{ 1.R ^ ^ ! n A N S ! R o.                          ",
"                                        q.k.I M S S A A n n A Q ! T ;.                          ",
"                                      &.z j B V Z Z A A n n A ! ! :.                            ",
"                                  3 &.z y.G.b N Z Z Z N A n A ! ^ 4.                            ",
"                                  q.O.y.Z.P.H S Q Z Z V B A A U R [                             ",
"                                e.O.a.p.W.U.m.T ^ Q N V V A A U Y                               ",
"                              6 #.V.u.W.W.:X|.x ( n n b B A S ^ ,.                              ",
"                              %.N.I.h.W./.Y.2Xf f I.h s J n W / ,.                              ",
"                            6 #.XXC.W.W.W.<XU.;XW.W.W.L.n.G W / }                               ",
"                            %.}.>X~.W.W.!.R.W.W.!.R.W.W..Xx._ m R                               ",
"                          5 #.+X;X_.W.E.!.!.!.R.!.R./.P.U. XH A ^ =.                            ",
"                          8.N.I.~.!.!.E.E.!.E.!.F.:Xs.h.;XL.d L n 2.                            ",
"                        O q.l.U.W.!.Q.(.!.T.E.W.;Xg.h h L.L.J n n 1.$.                          ",
"                      * 0 ;.f ~.W.W._.).(._.!.~.I.a.D D A.f._ C / Y *.,                         ",
"                      = 7.[ S.W.W./.^.).Q.T.W.~..Xs F P n.f.C / ^ T ..y ;                       "
};
