/* XPM */
static char *_6ed6615ef734e6cb81b1945dc97bcc5[] = {
/* columns rows colors chars-per-pixel */
"48 48 206 2 ",
"   c None",
".  c #5E2F1B",
"X  c #4D321F",
"o  c #6C2C08",
"O  c #732F08",
"+  c #602E13",
"@  c #653515",
"#  c #4D362E",
"$  c #5C3828",
"%  c #423B3B",
"&  c #663622",
"*  c #774129",
"=  c #483D41",
"-  c #7E5841",
";  c #9B4924",
":  c #9B5A30",
">  c #A25421",
",  c #A3552E",
"<  c #B95C26",
"1  c #A85C38",
"2  c #9C6234",
"3  c #AA6328",
"4  c #AB6739",
"5  c #BA6534",
"6  c #B8673C",
"7  c #B7713D",
"8  c #BD773B",
"9  c #EB5B02",
"0  c #F45E00",
"q  c #D86D09",
"w  c #D57205",
"e  c #DC7601",
"r  c #D37C00",
"t  c #DC7D01",
"y  c #D6770D",
"u  c #DC7B0B",
"i  c #D27A0C",
"p  c #D66813",
"a  c #DF6C11",
"s  c #DE6E1C",
"d  c #C57917",
"f  c #DA7718",
"g  c #E56700",
"h  c #ED6504",
"j  c #E46C02",
"k  c #EC6B04",
"l  c #E4620B",
"z  c #EC640C",
"x  c #ED6B0C",
"c  c #E56E0A",
"v  c #F36505",
"b  c #FA6303",
"n  c #F36906",
"m  c #FC6A06",
"M  c #F4660A",
"N  c #F46C0C",
"B  c #FC6C0B",
"V  c #E47403",
"C  c #E7760C",
"Z  c #E37A0B",
"A  c #EA7605",
"S  c #F3730C",
"D  c #FE710C",
"F  c #F3780A",
"G  c #E36D12",
"H  c #EB6B14",
"J  c #E9671A",
"K  c #E36B1C",
"L  c #EC6C1B",
"P  c #E46718",
"I  c #F36710",
"U  c #F36B13",
"Y  c #FB6E14",
"T  c #F26D1A",
"R  c #F86D1B",
"E  c #E67612",
"W  c #EE7312",
"Q  c #E3741B",
"!  c #EB731C",
"~  c #E47D15",
"^  c #F57114",
"/  c #FB7213",
"(  c #F3711B",
")  c #FB711C",
"_  c #F37B1A",
"`  c #F77C15",
"'  c #CB6928",
"]  c #CE6E22",
"[  c #D46E25",
"{  c #DB6B23",
"}  c #D56C2B",
"|  c #DB6D2B",
" . c #C77720",
".. c #CB7125",
"X. c #DC7324",
"o. c #D4762D",
"O. c #DC732E",
"+. c #D47B2E",
"@. c #D97527",
"#. c #CF6D34",
"$. c #C2693B",
"%. c #D36F31",
"&. c #C97839",
"*. c #D67235",
"=. c #DB7433",
"-. c #DB7E30",
";. c #D5753A",
":. c #DD753C",
">. c #DC793B",
",. c #E46620",
"<. c #E46B22",
"1. c #ED6E23",
"2. c #EB6F28",
"3. c #E47222",
"4. c #EC7423",
"5. c #E27229",
"6. c #E17B29",
"7. c #F87624",
"8. c #E37232",
"9. c #A96B42",
"0. c #BF7745",
"q. c #B57B40",
"w. c #AB785B",
"e. c #BF7D59",
"r. c #C07848",
"t. c #C9784B",
"y. c #D37441",
"u. c #DF7E49",
"i. c #D77D4A",
"p. c #E57B41",
"a. c #CD8400",
"s. c #D78402",
"d. c #D9871B",
"f. c #E18109",
"g. c #E78E10",
"h. c #EA8A19",
"j. c #FF8B1C",
"k. c #ECA819",
"l. c #CB832E",
"z. c #D38231",
"x. c #FB842C",
"c. c #FF9724",
"v. c #FF9825",
"b. c #FA952D",
"n. c #FF9236",
"m. c #F29F37",
"M. c #F09E38",
"N. c #FC9C39",
"B. c #F4A320",
"V. c #F8A324",
"C. c #FFB52A",
"Z. c #FFAE37",
"A. c #FFA339",
"S. c #FEAB3A",
"D. c #FDA633",
"F. c #FFBC36",
"G. c #FFB43D",
"H. c #FFBD3C",
"J. c #FFB335",
"K. c #F6C72F",
"L. c #FEC32D",
"P. c #FEC433",
"I. c #FECB35",
"U. c #FEC33C",
"Y. c #FFCB3B",
"T. c #F3C532",
"R. c #EED030",
"E. c #F6D138",
"W. c #FED23B",
"Q. c #F8D334",
"!. c #CD864E",
"~. c #DD8B41",
"^. c #CC9443",
"/. c #C2825E",
"(. c #D08D5C",
"). c #DE935C",
"_. c #F29F41",
"`. c #FF9A40",
"'. c #F2984C",
"]. c #F79E5D",
"[. c #F89C53",
"{. c #FFAE47",
"}. c #FFA449",
"|. c #FFBA43",
" X c #FFB64E",
".X c #FFB94B",
"XX c #E7B753",
"oX c #FFB254",
"OX c #FFBF55",
"+X c #F6B957",
"@X c #E8B768",
"#X c #FEBA60",
"$X c #F4BB68",
"%X c #E7A778",
"&X c #FFBC78",
"*X c #FFC343",
"=X c #FFC941",
"-X c #FFC64D",
";X c #FFCB4C",
":X c #FFC157",
">X c #FEC55B",
",X c #FFC85A",
"<X c #F5C35A",
"1X c #FFC664",
"2X c #FCC36C",
"3X c #FBCA78",
/* pixels */
"  % X @ o O o w.-                                                                               ",
"= # @ 2 0.r.e.+ $                                                                               ",
"  * !.~.'.&.9..                                                                                 ",
"  1 [.}.`...:                                                                                   ",
"  5 X.q Q o.o                                                                                   ",
"  i.o.6.[ &.@                                                                                   ",
"  /.6 5 t.e.&                                                       3X                          ",
"                                                                  3X+X<X                        ",
"                                                                ^.,X;X*XXX                      ",
"                                                              q.1XG.U.*X>X                      ",
"                                                              &X_.D.*XH.:X@X                    ",
"                                                            ).-.f w e |. X$X                    ",
"                                                            ].p a _ V e OX$X                    ",
"                                                          9.[ _ ^ x x C d.#X                    ",
"                                                          %Xs N / h N A u 1X@X                  ",
"                                                          (.3.n M N n k u OX@X                  ",
"                                                          4 X.x T U U W y  X2X                  ",
"                                                            ' 4.L T M W w >X+X                  ",
"                                                            > O.L z B n g A.oX                  ",
"                                                              %.K / 0 m D g oX                  ",
"                                                              *.H N B b m N Q                   ",
"                                                            ; | H U M B B N !                   ",
"                                                            < <.( z Y I I L 4.                  ",
"                                                            | L I Y H P T L ,.                  ",
"                                                          < 4.M Y M ( H ( J 2.                  ",
"                                                        , =.( v B v ) H l 7.K                   ",
"                                                      1 >.3.l D m B 9 U ( K 5.                  ",
"                                                    6 :.<.H / h v D ) L 1.{                     ",
"                                                  y.{ T I Y N N B z J 8.;.                      ",
"                                              5 :.K ) M B M M ^ ^ L 8.                          ",
"                                            u.| J R v B M M U U H {                             ",
"                                        > >.<.T N b B m M U R H 3.;.                            ",
"                                      3 [ K T I U N B v N U R L }                               ",
"                                    7 o.x.x / M U I v n n h U <.;.                              ",
"                                  8 z.N.N.S N U z ^ N N B n U K &.                              ",
"                                3  .m.|.v.A h Y T T M h n n N 3.                                ",
"                                l.d.*X*Xt F x U 7.z U N / N x 5.                                ",
"                              &.d -XU.H.g.V W I U z / N B ^ T {                                 ",
"                              +.M.|.*XU.G.e j ^ x S k S h x 7.|                                 ",
"                            ;.f .X*X*X=XH.V.e V V V e Z.j.c ! O.                                ",
"                            @.b.|.=XY.T.I.Y.F.C.a.k.P.U.J.h.y o.                                ",
"                          y.Q c.B.P.W.W.I.I.I.I.P.P.L.U.*XS.~ ]                                 ",
"                          =.E e C.I.I.I.I.P.U.U.F.F.s.r u {.G 5.$.                              ",
"                        $.{ E e P.I.L.L.Y.Y.U.U.H.f.Z Z E n.T K u.                              ",
"                        #.K ~ B.P.I.I.I.Y.Y.U.*XG.j x x H x.R 1.|                               ",
"                        p.Q w F.I.Q.I.Y.Y.Y.U.H.Z ` x M U n.z ( { <                             ",
"                        } Q i H.Y.I.P.P.I.W.E.Y.t j N B N S n x ! #.                            ",
"                        8.G S.H.U.Y.P.P.I.Q.R.K.r A h n k S S k G *.                            "
};
